<?xml version="1.0" encoding="utf-8"?>
<!-- Generator: Adobe Illustrator 27.0.1, SVG Export Plug-In . SVG Version: 6.00 Build 0)  -->
<svg version="1.1" id="Livello_1" xmlns="http://www.w3.org/2000/svg" xmlns:xlink="http://www.w3.org/1999/xlink" x="0px" y="0px"
	 viewBox="0 0 1920 1080" style="enable-background:new 0 0 1920 1080;" xml:space="preserve">
<style type="text/css">
	.st0{fill-rule:evenodd;clip-rule:evenodd;fill:#866668;}
	.st1{fill-rule:evenodd;clip-rule:evenodd;fill:#4A374B;}
	.st2{fill-rule:evenodd;clip-rule:evenodd;fill:#E25D6F;}
	.st3{fill-rule:evenodd;clip-rule:evenodd;fill:#F9D6A6;}
</style>
<g>
	<g>
		<path class="st0" d="M857.73,950.4v-36.41c0-4.4-1.09-8.61-3.03-11.72c-1.94-3.11-4.57-4.86-7.31-4.86c-0.26,0,0.26,0.13,0,0.13
			c-2.74,0-5.37,1.75-7.31,4.86c-1.94,3.11-3.03,7.33-3.03,11.72v36.28H857.73v0.1l-20.68,0.13v-0.23h-37.92v-39.05
			c0-4.71-1.27-9.23-3.52-12.57c-2.25-3.33-5.31-5.21-8.49-5.21c-0.3,0-0.61,0-0.91,0c-3.18,0-6.24,1.87-8.49,5.21
			c-2.25,3.33-3.52,7.85-3.52,12.57v39.05h24.93v0.23H774.2v-0.23h-10.14v-42.73c0-8.44-4.43-15.29-9.89-15.29c-0.55,0-1.1,0-1.65,0
			c-5.46,0-9.89,6.84-9.89,15.29v42.73h21.42v0.85h-21.42v-0.85h-9.64v-45.92c0-5.51-1.45-10.8-4.04-14.7
			c-2.59-3.9-6.09-6.09-9.75-6.09c-0.35,0-0.7,0-1.05,0c-3.66,0-7.17,2.19-9.75,6.09c-2.59,3.9-4.04,9.19-4.04,14.7v45.92h28.63
			v0.36h-28.63v-0.36H689.2v-51.67c0-9.97-5.69-18.06-12.7-18.06c-0.71,0-1.42,0-2.12,0c-7.02,0-12.7,8.08-12.7,18.06v51.67h27.53
			v0.17h-27.53v-0.17l-36.86,0.85v-43.58l17.32-42.11V759.96c111.06,13.09,144.99,22.74,246.41,57.02v135.4L857.73,950.4
			L857.73,950.4z M866.54,923.01c0,0-0.25-13,6.88-13c0.4,0,0.8,0,1.19,0c6.77,0,6.25,12.31,6.25,12.31l0.78,27.39l-14.31,0.69
			L866.54,923.01L866.54,923.01z M809.31,910.9c0-7.65,3.76-13.85,8.4-13.85c0.47,0,0.94,0,1.4,0c4.64,0,8.39,6.2,8.39,13.85
			c0,16.34,0,39.31,0,39.31h-18.19C809.31,950.21,809.31,927.23,809.31,910.9L809.31,910.9z M872.83,827.78
			c-2.03,0-3.69,2.45-3.69,5.46c0,3.01,1.65,5.46,3.69,5.46c2.03,0,3.68-2.45,3.68-5.46C876.52,830.22,874.87,827.78,872.83,827.78
			L872.83,827.78z M845.31,819.83c-2.65,0-4.8,3.12-4.8,6.97c0,3.84,2.15,6.97,4.8,6.97s4.8-3.12,4.8-6.97
			C850.11,822.95,847.96,819.83,845.31,819.83L845.31,819.83z M806.94,810.03c-3.06,0-5.54,3.67-5.54,8.2c0,4.53,2.48,8.2,5.54,8.2
			s5.54-3.67,5.54-8.2C812.48,813.7,809.99,810.03,806.94,810.03L806.94,810.03z M757.18,796.01c-3.53,0-6.39,4.33-6.39,9.65
			c0,5.33,2.86,9.65,6.39,9.65c3.53,0,6.39-4.33,6.39-9.65C763.57,800.33,760.7,796.01,757.18,796.01L757.18,796.01z M688.49,782.58
			c-4.07,0-7.37,5.09-7.37,11.36c0,6.27,3.3,11.36,7.37,11.36s7.37-5.09,7.37-11.36C695.86,787.67,692.56,782.58,688.49,782.58
			L688.49,782.58z"/>
		<path class="st0" d="M857.73,950.4v-36.41c0-4.4-1.09-8.61-3.03-11.72c-1.94-3.11-4.57-4.86-7.31-4.86c-0.26,0,0.26,0.13,0,0.13
			c-2.74,0-5.37,1.75-7.31,4.86c-1.94,3.11-3.03,7.33-3.03,11.72v36.28H857.73v0.1l-20.68,0.13v-0.23h-37.92v-39.05
			c0-4.71-1.27-9.23-3.52-12.57c-2.25-3.33-5.31-5.21-8.49-5.21c-0.3,0-0.61,0-0.91,0c-3.18,0-6.24,1.87-8.49,5.21
			c-2.25,3.33-3.52,7.85-3.52,12.57v39.05h24.93v0.23H774.2v-0.23h-10.14v-42.73c0-8.44-4.43-15.29-9.89-15.29c-0.55,0-1.1,0-1.65,0
			c-5.46,0-9.89,6.84-9.89,15.29v42.73h21.42v0.85h-21.42v-0.85h-9.64v-45.92c0-5.51-1.45-10.8-4.04-14.7
			c-2.59-3.9-6.09-6.09-9.75-6.09c-0.35,0-0.7,0-1.05,0c-3.66,0-7.17,2.19-9.75,6.09c-2.59,3.9-4.04,9.19-4.04,14.7v45.92h28.63
			v0.36h-28.63v-0.36H689.2v-51.67c0-9.97-5.69-18.06-12.7-18.06c-0.71,0-1.42,0-2.12,0c-7.02,0-12.7,8.08-12.7,18.06v51.67h27.53
			v0.17h-27.53v-0.17l-36.86,0.85v-43.58l17.32-42.11V759.96c111.06,13.09,144.99,22.74,246.41,57.02v135.4L857.73,950.4
			L857.73,950.4z M866.54,923.01c0,0-0.25-13,6.88-13c0.4,0,0.8,0,1.19,0c6.77,0,6.25,12.31,6.25,12.31l0.78,27.39l-14.31,0.69
			L866.54,923.01L866.54,923.01z M809.31,910.9c0-7.65,3.76-13.85,8.4-13.85c0.47,0,0.94,0,1.4,0c4.64,0,8.39,6.2,8.39,13.85
			c0,16.34,0,39.31,0,39.31h-18.19C809.31,950.21,809.31,927.23,809.31,910.9L809.31,910.9z M884.62,949.12l0.91,0.06V819.14
			c-98.56-33.29-133.02-43.03-240.41-55.8v102.22c0,0.39-0.08,0.78-0.22,1.14l-17.09,41.56v39.92l30.86-0.71v-48.74
			c0-6.85,2.43-12.89,6.04-16.65c2.7-2.81,6.06-4.41,9.67-4.41h2.12c3.6,0,6.97,1.59,9.67,4.41c3.61,3.76,6.04,9.8,6.04,16.65v48.67
			h9.16v-42.92c0-6.14,1.66-12.02,4.54-16.36c3.22-4.86,7.69-7.43,12.25-7.43c0.35,0,0.7,0,1.05,0c4.56,0,9.03,2.57,12.25,7.43
			c2.88,4.34,4.54,10.22,4.54,16.36v42.92h3.64v-39.73c0-5.89,1.94-11.09,4.8-14.32c2.25-2.55,5.08-3.96,8.09-3.96h1.65
			c3.01,0,5.83,1.41,8.09,3.96c2.85,3.24,4.8,8.43,4.8,14.32v39.73h4.14v-36.05c0-5.35,1.48-10.46,4.03-14.25
			c2.89-4.27,6.89-6.53,10.98-6.53c0.3,0,0.61,0,0.91,0c4.08,0,8.09,2.25,10.98,6.53c2.56,3.78,4.03,8.9,4.03,14.25v36.05h4.18
			v-36.5c0-5.39,1.68-10.13,4.12-13.09c2.02-2.44,4.58-3.76,7.27-3.76h1.4c2.69,0,5.25,1.32,7.27,3.76
			c2.45,2.96,4.12,7.71,4.12,13.09v36.5h3.55v-33.28c0-5,1.28-9.78,3.48-13.31c2.31-3.7,5.45-5.79,8.68-6.2
			c0.28-0.11,0.67-0.2,1.18-0.2c3.65,0,7.28,2.13,9.86,6.27c2.2,3.53,3.48,8.32,3.48,13.31v33.6l3.52,0.23l-0.7-24.72
			c0-0.01,0-0.02,0-0.03c0,0-0.09-5.32,1.58-9.57c1.44-3.67,4.1-6.48,8.29-6.48c0.4,0,0.8,0,1.19,0c4.09,0,6.62,2.72,7.94,6.29
			c1.37,3.7,1.33,8.24,1.31,9.01L884.62,949.12L884.62,949.12z M872.83,824.78c-1.62,0-3.17,0.7-4.38,2.02
			c-1.34,1.46-2.3,3.78-2.3,6.44c0,2.65,0.96,4.98,2.3,6.44c1.22,1.32,2.76,2.02,4.38,2.02c1.62,0,3.16-0.7,4.38-2.02
			c1.34-1.46,2.3-3.78,2.3-6.44c0-2.66-0.96-4.98-2.3-6.44C876,825.48,874.46,824.78,872.83,824.78L872.83,824.78z M872.83,827.78
			c-2.03,0-3.69,2.45-3.69,5.46c0,3.01,1.65,5.46,3.69,5.46c2.03,0,3.68-2.45,3.68-5.46C876.52,830.22,874.87,827.78,872.83,827.78
			L872.83,827.78z M845.31,816.83c-1.86,0-3.62,0.8-5.02,2.29c-1.63,1.74-2.78,4.51-2.78,7.68c0,3.16,1.15,5.94,2.78,7.68
			c1.4,1.49,3.16,2.29,5.02,2.29c1.86,0,3.62-0.8,5.02-2.29c1.63-1.74,2.78-4.51,2.78-7.68c0-3.16-1.15-5.94-2.78-7.68
			C848.94,817.64,847.18,816.83,845.31,816.83L845.31,816.83z M845.31,819.83c-2.65,0-4.8,3.12-4.8,6.97c0,3.84,2.15,6.97,4.8,6.97
			s4.8-3.12,4.8-6.97C850.11,822.95,847.96,819.83,845.31,819.83L845.31,819.83z M806.94,807.03c-2.03,0-3.95,0.9-5.48,2.55
			c-1.8,1.96-3.06,5.09-3.06,8.65c0,3.56,1.26,6.69,3.06,8.65c1.53,1.65,3.44,2.55,5.48,2.55c2.03,0,3.95-0.9,5.48-2.55
			c1.8-1.96,3.06-5.09,3.06-8.65c0-3.56-1.26-6.69-3.06-8.65C810.89,807.92,808.97,807.03,806.94,807.03L806.94,807.03z
			 M806.94,810.03c-3.06,0-5.54,3.67-5.54,8.2c0,4.53,2.48,8.2,5.54,8.2s5.54-3.67,5.54-8.2
			C812.48,813.7,809.99,810.03,806.94,810.03L806.94,810.03z M757.18,793.01c-2.23,0-4.33,1-6,2.85c-2,2.22-3.39,5.77-3.39,9.8
			c0,4.03,1.39,7.58,3.39,9.8c1.67,1.85,3.77,2.85,6,2.85c2.23,0,4.33-1,6-2.85c2-2.22,3.39-5.77,3.39-9.8
			c0-4.03-1.39-7.58-3.39-9.8C761.51,794.01,759.41,793.01,757.18,793.01L757.18,793.01z M757.18,796.01
			c-3.53,0-6.39,4.33-6.39,9.65c0,5.33,2.86,9.65,6.39,9.65c3.53,0,6.39-4.33,6.39-9.65C763.57,800.33,760.7,796.01,757.18,796.01
			L757.18,796.01z M688.49,779.58c-2.45,0-4.76,1.13-6.6,3.21c-2.23,2.52-3.77,6.57-3.77,11.16c0,4.59,1.54,8.63,3.77,11.16
			c1.84,2.08,4.15,3.21,6.6,3.21c2.45,0,4.76-1.13,6.6-3.21c2.23-2.52,3.77-6.57,3.77-11.16c0-4.59-1.54-8.63-3.77-11.16
			C693.25,780.71,690.94,779.58,688.49,779.58L688.49,779.58z M688.49,782.58c-4.07,0-7.37,5.09-7.37,11.36
			c0,6.27,3.3,11.36,7.37,11.36s7.37-5.09,7.37-11.36C695.86,787.67,692.56,782.58,688.49,782.58L688.49,782.58z"/>
		<path class="st0" d="M642.13,836.63v-11.46c0,0,229.53,28.57,251.64,31.08c0.71,0.08,1.36,0.66,1.81,1.62
			c0.45,0.96,0.67,2.21,0.61,3.48c0,0.03,0,0.06-0.01,0.09c-0.06,1.27-0.4,2.46-0.95,3.31c-0.54,0.84-1.24,1.27-1.95,1.19
			C871.2,863.43,642.13,836.63,642.13,836.63L642.13,836.63z"/>
		<path class="st1" d="M764.06,907.67c0-8.44-4.43-15.29-9.89-15.29c-0.55,0-1.1,0-1.65,0c-5.46,0-9.89,6.84-9.89,15.29v45.57h-1.79
			c0,0,0-29.06,0-48.09c0-8.91,4.8-16.13,10.71-16.13c0.6,0,1.19,0,1.79,0c5.92,0,10.71,7.22,10.71,16.13V907.67L764.06,907.67z
			 M689.2,898.73c0-9.97-5.69-18.06-12.7-18.06c-0.71,0-1.42,0-2.12,0c-7.02,0-12.7,8.08-12.7,18.06v53.83h-2.31c0,0,0-34.33,0-56.8
			c0-10.52,6.17-19.05,13.77-19.05c0.77,0,1.54,0,2.3,0c7.6,0,13.77,8.53,13.77,19.05V898.73L689.2,898.73z M827.5,910.9
			c0-7.65-3.76-13.85-8.39-13.85c-0.47,0-0.94,0-1.4,0c-4.64,0-8.4,6.2-8.4,13.85v41.3h-1.52c0,0,0-26.34,0-43.58
			c0-8.07,4.07-14.62,9.1-14.62c0.51,0,1.01,0,1.52,0c5.03,0,9.1,6.54,9.1,14.62V910.9L827.5,910.9z M881.47,922.98
			c0-6.93-2.59-12.55-6.53-12.55c-0.4,0-0.79,0-1.19,0c-3.94,0-7.13,5.62-7.13,12.55v37.43h-1.3c0,0,0-24.05,0-39.49
			c0-6.83,3.36-13.19,7.73-13.25c0.43-0.01,0.86,0,1.29,0c4.27,0,7.03,5.93,7.03,13.25L881.47,922.98L881.47,922.98z"/>
		<path class="st1" d="M729.99,891.54c-0.32-0.62-0.67-1.2-1.04-1.77c-2.59-3.9-6.09-6.09-9.75-6.09c-0.35,0-0.7,0-1.05,0
			c-3.66,0-7.17,2.19-9.75,6.09c-2.59,3.9-4.04,9.19-4.04,14.7c0,20.34,0,48.27,0,48.27h-1.77c0,0,0-29.57,0-51.09
			c0-5.84,1.47-11.43,4.09-15.56c2.62-4.13,6.17-6.45,9.86-6.45c0.35,0,0.71,0,1.06,0c3.7,0,7.25,2.32,9.86,6.45
			C728.49,887.71,729.34,889.55,729.99,891.54L729.99,891.54z M798,903.82c-0.59-1.85-1.39-3.56-2.39-5.04
			c-2.25-3.33-5.31-5.21-8.49-5.21c-0.3,0-0.61,0-0.91,0c-3.18,0-6.24,1.87-8.49,5.21c-2.25,3.33-3.52,7.85-3.52,12.57v41.25h-0.96
			c0,0,0-25.27,0-43.67c0-4.99,1.28-9.77,3.56-13.3c2.28-3.53,5.37-5.51,8.59-5.51c0.31,0,0.61,0,0.92,0c3.22,0,6.31,1.98,8.59,5.51
			C796.38,897.92,797.44,900.75,798,903.82L798,903.82z M857.73,915.55c0-4.4-1.09-8.61-3.03-11.72c-1.94-3.11-4.57-4.86-7.31-4.86
			c-0.26,0,0.26,0.13,0,0.13c-2.74,0-5.37,1.75-7.31,4.86c-1.94,3.11-3.03,7.33-3.03,11.72v36.78h-1.03c0,0,0-22.02,0-39.18
			c0-4.65,1.1-9.12,3.06-12.41c1.96-3.29,4.62-5.14,7.4-5.14c0.26,0,0.53,0,0.79,0c2.77,0,5.44,1.85,7.4,5.14
			c1.96,3.29,3.06,7.76,3.06,12.41V915.55L857.73,915.55z"/>
		<path class="st1" d="M641.94,840.01V829.3c0,0,180.17,20.32,246.79,35.89v6.38C821.69,857.99,641.94,840.01,641.94,840.01
			L641.94,840.01z"/>
		<path class="st1" d="M642.22,820.15v-10.71c0,0,179.94,24.65,246.43,40.19V856C821.76,842.45,642.22,820.15,642.22,820.15
			L642.22,820.15z"/>
		<path class="st1" d="M642.14,858.53v-14.06c0,0,164.17,17.75,246.51,35.63v6.05C803.95,870.63,642.14,858.53,642.14,858.53
			L642.14,858.53z"/>
		<path class="st1" d="M864.05,920.69c0-3.76,0.99-7.37,2.75-10.03c1.76-2.66,4.16-4.15,6.65-4.15c0.04,0,0.07,0,0.11,0
			c2.49,0,4.89,1.49,6.65,4.15c1.76,2.66,2.75,6.27,2.75,10.03c0,13.46,0,31.63,0,31.63h-18.91
			C864.05,952.32,864.05,934.14,864.05,920.69L864.05,920.69z M864.64,920.69v30.87h17.74v-30.87c0-3.57-0.94-7.01-2.61-9.53
			c-1.65-2.48-3.88-3.89-6.2-3.89c-0.03,0-0.07,0-0.11,0c-2.33,0-4.56,1.41-6.2,3.89C865.58,913.68,864.64,917.11,864.64,920.69
			L864.64,920.69z"/>
		<path class="st1" d="M805.4,909.99c0-5.05,1.25-9.9,3.48-13.47c2.23-3.57,5.25-5.58,8.4-5.58c0.05,0,0.09,0,0.14,0
			c3.15,0,6.17,2.01,8.4,5.58c2.23,3.57,3.48,8.42,3.48,13.47c0,18.07,0,42.48,0,42.48H805.4
			C805.4,952.47,805.4,928.06,805.4,909.99L805.4,909.99z M806.14,909.99v41.47h22.41v-41.47c0-4.8-1.18-9.41-3.3-12.81
			c-2.08-3.33-4.9-5.22-7.84-5.22c-0.04,0-0.09,0-0.14,0c-2.94,0-5.76,1.89-7.84,5.22C807.33,900.58,806.14,905.19,806.14,909.99
			L806.14,909.99z"/>
		<path class="st1" d="M738.68,907.33c0-5.47,1.42-10.72,3.95-14.59c2.53-3.87,5.96-6.04,9.54-6.04c0.05,0,0.1,0,0.15,0
			c3.58,0,7.01,2.17,9.54,6.04s3.95,9.12,3.95,14.59c0,19.58,0,46.03,0,46.03h-27.15C738.68,953.36,738.68,926.91,738.68,907.33
			L738.68,907.33z M739.53,907.33v44.93h25.46v-44.93c0-5.2-1.34-10.19-3.75-13.87c-2.36-3.61-5.56-5.66-8.9-5.66
			c-0.05,0-0.1,0-0.15,0c-3.34,0-6.54,2.04-8.9,5.66C740.87,897.14,739.53,902.13,739.53,907.33L739.53,907.33z"/>
		<path class="st1" d="M657.14,897.64c0-6.5,1.78-12.73,4.94-17.32c3.16-4.59,7.45-7.18,11.92-7.18c0.06,0,0.13,0,0.19,0
			c4.47,0,8.76,2.58,11.92,7.18c3.16,4.59,4.94,10.82,4.94,17.32c0,23.24,0,54.64,0,54.64h-33.91
			C657.14,952.28,657.14,920.88,657.14,897.64L657.14,897.64z M658.19,897.64v53.33H690v-53.33c0-6.17-1.68-12.1-4.69-16.47
			c-2.95-4.29-6.95-6.72-11.12-6.72c-0.06,0-0.13,0-0.19,0c-4.17,0-8.17,2.43-11.12,6.72C659.87,885.54,658.19,891.47,658.19,897.64
			L658.19,897.64z"/>
		<path class="st1" d="M700.19,901.67c0-6.2,1.7-12.14,4.74-16.53c3.03-4.38,7.15-6.85,11.44-6.85c0.06,0,0.12,0,0.18,0
			c4.29,0,8.41,2.46,11.44,6.85c3.03,4.38,4.74,10.33,4.74,16.53c0,22.18,0,52.14,0,52.14h-32.55
			C700.19,953.81,700.19,923.85,700.19,901.67L700.19,901.67z M701.2,901.67v50.89h30.53v-50.89c0-5.89-1.61-11.55-4.5-15.71
			c-2.83-4.09-6.67-6.41-10.68-6.41c-0.06,0-0.12,0-0.18,0c-4.01,0-7.84,2.32-10.68,6.41C702.82,890.12,701.2,895.78,701.2,901.67
			L701.2,901.67z"/>
		<path class="st1" d="M771.39,908.4c0-5.29,1.48-10.36,4.11-14.09c2.64-3.74,6.21-5.84,9.93-5.84c0.05,0,0.11,0,0.16,0
			c3.73,0,7.3,2.1,9.93,5.84c2.63,3.74,4.11,8.81,4.11,14.09c0,18.91,0,44.46,0,44.46h-28.26
			C771.39,952.86,771.39,927.31,771.39,908.4L771.39,908.4z M772.27,908.4v43.39h26.5V908.4c0-5.03-1.4-9.85-3.9-13.4
			c-2.46-3.49-5.79-5.47-9.27-5.47c-0.05,0-0.11,0-0.16,0c-3.48,0-6.81,1.98-9.27,5.47C773.66,898.56,772.27,903.38,772.27,908.4
			L772.27,908.4z"/>
		<path class="st1" d="M834.46,912.82c0-4.97,1.27-9.74,3.53-13.26c2.26-3.52,5.33-5.49,8.53-5.49c0.05,0,0.09,0,0.14,0
			c3.2,0,6.27,1.98,8.53,5.49c2.26,3.52,3.53,8.29,3.53,13.26c0,17.79,0,40.07,0,40.07h-24.27
			C834.46,952.89,834.46,930.61,834.46,912.82L834.46,912.82z M835.21,912.82v39.07h22.76v-39.07c0-4.73-1.2-9.27-3.35-12.61
			c-2.11-3.28-4.97-5.14-7.96-5.14c-0.05,0-0.09,0-0.14,0c-2.99,0-5.85,1.86-7.96,5.14C836.42,903.55,835.21,908.09,835.21,912.82
			L835.21,912.82z"/>
		<path class="st0" d="M611.99,946.5v-11.46c0,0,261.06,28.57,286.21,31.08c0.8,0.08,1.54,0.66,2.06,1.62
			c0.52,0.96,0.77,2.21,0.7,3.48c0,0.03,0,0.06-0.01,0.09c-0.07,1.27-0.46,2.46-1.08,3.31c-0.62,0.84-1.42,1.27-2.22,1.19
			C872.52,973.3,611.99,946.5,611.99,946.5L611.99,946.5z"/>
		<path class="st0" d="M857.39,1083.16v-38.4c0-4.4-1.24-8.61-3.45-11.72c-2.2-3.11-5.2-4.86-8.32-4.86c-0.3,0,0.3,0.13,0,0.13
			c-3.12,0-6.11,1.75-8.32,4.86c-2.2,3.11-3.44,7.33-3.44,11.72v38.27H857.39v0.1l-23.52,0.13v-0.23h-43.13v-41.03
			c0-4.71-1.44-9.23-4-12.57c-2.56-3.33-6.04-5.2-9.66-5.2c-0.34,0-0.69,0-1.04,0c-3.62,0-7.1,1.87-9.66,5.2
			c-2.56,3.33-4,7.85-4,12.57v41.03h28.35v0.23h-28.35v-0.23h-11.54v-44.72c0-8.44-5.03-15.29-11.24-15.29c-0.62,0-1.25,0-1.88,0
			c-6.21,0-11.24,6.84-11.24,15.29v44.72h24.37v0.85h-24.37v-0.85h-10.97v-47.91c0-5.51-1.65-10.8-4.6-14.7
			c-2.94-3.9-6.93-6.09-11.09-6.09c-0.4,0-0.79,0-1.19,0c-4.16,0-8.15,2.19-11.09,6.09c-2.94,3.9-4.59,9.19-4.59,14.7v47.91h32.57
			v0.36h-32.57v-0.36h-17.24v-53.65c0-9.97-6.47-18.06-14.45-18.06c-0.8,0-1.61,0-2.41,0c-7.98,0-14.45,8.08-14.45,18.06v53.65
			h31.31v0.17h-31.31v-0.17l-24.79-1.13l2.56-43.58V909.09c126.31,13.09,154.45,12.49,280.25,38.66v135.4H857.39L857.39,1083.16z
			 M802.31,1041.67c0-7.65,4.28-13.85,9.55-13.85c0.53,0,1.06,0,1.6,0c5.27,0,9.55,6.2,9.55,13.85c0,16.34,0,41.3,0,41.3h-20.69
			C802.31,1082.97,802.31,1058.01,802.31,1041.67L802.31,1041.67z M868.01,1045.29c0-6.93,3.63-12.55,8.11-12.55
			c0.45,0,0.9,0,1.35,0c4.48,0,6.82,4.93,6.82,11.86c0,14.8,0,37.43,0,37.43l-16.28,0.69
			C868.01,1082.71,868.01,1060.09,868.01,1045.29L868.01,1045.29z"/>
		<path class="st0" d="M857.39,1083.16v-38.4c0-4.4-1.24-8.61-3.45-11.72c-2.2-3.11-5.2-4.86-8.32-4.86c-0.3,0,0.3,0.13,0,0.13
			c-3.12,0-6.11,1.75-8.32,4.86c-2.2,3.11-3.44,7.33-3.44,11.72v38.27H857.39v0.1l-23.52,0.13v-0.23h-43.13v-41.03
			c0-4.71-1.44-9.23-4-12.57c-2.56-3.33-6.04-5.2-9.66-5.2c-0.34,0-0.69,0-1.04,0c-3.62,0-7.1,1.87-9.66,5.2
			c-2.56,3.33-4,7.85-4,12.57v41.03h28.35v0.23h-28.35v-0.23h-11.54v-44.72c0-8.44-5.03-15.29-11.24-15.29c-0.62,0-1.25,0-1.88,0
			c-6.21,0-11.24,6.84-11.24,15.29v44.72h24.37v0.85h-24.37v-0.85h-10.97v-47.91c0-5.51-1.65-10.8-4.6-14.7
			c-2.94-3.9-6.93-6.09-11.09-6.09c-0.4,0-0.79,0-1.19,0c-4.16,0-8.15,2.19-11.09,6.09c-2.94,3.9-4.59,9.19-4.59,14.7v47.91h32.57
			v0.36h-32.57v-0.36h-17.24v-53.65c0-9.97-6.47-18.06-14.45-18.06c-0.8,0-1.61,0-2.41,0c-7.98,0-14.45,8.08-14.45,18.06v53.65
			h31.31v0.17h-31.31v-0.17l-24.79-1.13l2.56-43.58V909.09c126.31,13.09,154.45,12.49,280.25,38.66v135.4H857.39L857.39,1083.16z
			 M802.31,1041.67c0-7.65,4.28-13.85,9.55-13.85c0.53,0,1.06,0,1.6,0c5.27,0,9.55,6.2,9.55,13.85c0,16.34,0,41.3,0,41.3h-20.69
			C802.31,1082.97,802.31,1058.01,802.31,1041.67L802.31,1041.67z M868.01,1045.29c0-6.93,3.63-12.55,8.11-12.55
			c0.45,0,0.9,0,1.35,0c4.48,0,6.82,4.93,6.82,11.86c0,14.8,0,37.43,0,37.43l-16.28,0.69
			C868.01,1082.71,868.01,1060.09,868.01,1045.29L868.01,1045.29z M887.29,1080.16h2.13V950.2
			c-122.54-25.41-151.67-25.14-274.25-37.78v126.02c0,0.06,0,0.12-0.01,0.18l-2.38,40.55l18.62,0.85v-50.51
			c0-11.79,8.01-21.06,17.45-21.06h2.41c9.44,0,17.45,9.26,17.45,21.06v50.65h11.24v-44.91c0-6.2,1.89-12.13,5.2-16.51
			c3.56-4.72,8.45-7.28,13.49-7.28c0.4,0,0.79,0,1.19,0c5.04,0,9.92,2.56,13.49,7.28c3.31,4.38,5.2,10.31,5.2,16.51v44.91h4.97
			v-41.72c0-10.31,6.66-18.29,14.24-18.29h1.88c7.58,0,14.24,7.97,14.24,18.29v41.72h5.54v-38.03c0-5.4,1.69-10.57,4.62-14.4
			c3.18-4.14,7.54-6.38,12.04-6.38c0.34,0,0.69,0,1.04,0c4.5,0,8.86,2.24,12.04,6.38c2.94,3.82,4.62,8.99,4.62,14.4v38.03h5.58
			v-38.49c0-5.45,1.91-10.24,4.72-13.24c2.18-2.32,4.91-3.62,7.82-3.62h1.6c2.91,0,5.64,1.3,7.82,3.62
			c2.81,2.99,4.72,7.79,4.72,13.24v38.49h4.86v-35.27c0-5.05,1.46-9.89,4-13.46c2.56-3.61,6-5.69,9.56-6.06
			c0.31-0.11,0.71-0.19,1.2-0.19c4.01,0,7.93,2.12,10.76,6.12c2.54,3.57,4,8.41,4,13.46v35.4h4.62v-34.87
			c0-4.99,1.66-9.38,4.07-12.11c1.96-2.22,4.42-3.44,7.04-3.44h1.35c3.37,0,6,1.74,7.72,4.9c1.34,2.46,2.09,5.91,2.09,9.97V1080.16
			L887.29,1080.16z"/>
		<path class="st1" d="M750.84,1038.44c0-8.44-5.03-15.29-11.24-15.29c-0.62,0-1.25,0-1.88,0c-6.21,0-11.24,6.84-11.24,15.29v45.57
			h-2.04c0,0,0-29.06,0-48.09c0-8.91,5.45-16.13,12.18-16.13c0.68,0,1.36,0,2.04,0c6.73,0,12.19,7.22,12.19,16.13V1038.44
			L750.84,1038.44z M665.71,1029.5c0-9.97-6.47-18.06-14.45-18.06c-0.8,0-1.61,0-2.41,0c-7.98,0-14.45,8.08-14.45,18.06v53.83h-2.62
			c0,0,0-34.33,0-56.8c0-10.52,7.01-19.05,15.66-19.05c0.87,0,1.75,0,2.62,0c8.65,0,15.66,8.53,15.66,19.05V1029.5L665.71,1029.5z
			 M823,1041.67c0-7.65-4.28-13.85-9.55-13.85c-0.53,0-1.06,0-1.6,0c-5.27,0-9.55,6.2-9.55,13.85v41.3h-1.73c0,0,0-26.34,0-43.58
			c0-8.07,4.63-14.62,10.35-14.62c0.57,0,1.15,0,1.73,0c5.71,0,10.35,6.54,10.35,14.62V1041.67L823,1041.67z M884.87,1045.11
			c0-6.93-2.95-12.55-7.42-12.55c-0.45,0-0.9,0-1.35,0c-4.48,0-8.11,5.62-8.11,12.55v37.42h-1.47c0,0,0-23.87,0-39.49
			c0-7.32,3.93-13.25,8.79-13.25c0.49,0,0.98,0,1.47,0c4.85,0,7.99,5.93,7.99,13.25L884.87,1045.11L884.87,1045.11z"/>
		<path class="st1" d="M712.1,1022.31c-0.37-0.61-0.77-1.2-1.19-1.77c-2.94-3.9-6.93-6.09-11.09-6.09c-0.4,0-0.79,0-1.19,0
			c-4.16,0-8.15,2.19-11.09,6.09c-2.94,3.9-4.59,9.19-4.59,14.7c0,20.34,0,48.27,0,48.27h-2.01c0,0,0-29.57,0-51.09
			c0-5.84,1.67-11.43,4.65-15.56c2.98-4.13,7.01-6.45,11.22-6.45c0.4,0,0.8,0,1.2,0c4.21,0,8.24,2.32,11.22,6.45
			C710.39,1018.48,711.36,1020.32,712.1,1022.31L712.1,1022.31z M789.45,1034.6c-0.67-1.85-1.58-3.56-2.71-5.04
			c-2.56-3.33-6.04-5.2-9.66-5.2c-0.34,0-0.69,0-1.04,0c-3.62,0-7.1,1.87-9.66,5.2c-2.56,3.33-4,7.85-4,12.57v41.25h-1.09
			c0,0,0-25.27,0-43.67c0-4.99,1.46-9.77,4.05-13.3c2.59-3.53,6.1-5.51,9.77-5.51c0.35,0,0.7,0,1.05,0c3.66,0,7.18,1.98,9.77,5.51
			C787.61,1028.7,788.81,1031.53,789.45,1034.6L789.45,1034.6z M857.39,1046.32c0-4.4-1.24-8.61-3.45-11.72
			c-2.2-3.11-5.2-4.86-8.32-4.86c-0.3,0,0.3,0.13,0,0.13c-3.12,0-6.11,1.75-8.32,4.86c-2.2,3.11-3.44,7.33-3.44,11.72v36.78h-1.17
			c0,0,0-22.02,0-39.18c0-4.66,1.25-9.12,3.48-12.41c2.23-3.29,5.26-5.14,8.41-5.14c0.3,0,0.6,0,0.9,0c3.16,0,6.18,1.85,8.41,5.14
			c2.23,3.29,3.48,7.76,3.48,12.41V1046.32L857.39,1046.32z"/>
		<path class="st1" d="M611.77,949.89v-10.71c0,0,204.91,20.32,280.69,35.89v6.38C816.22,967.86,611.77,949.89,611.77,949.89
			L611.77,949.89z"/>
		<path class="st1" d="M612.1,930.02v-10.71c0,0,204.66,24.65,280.28,40.19v6.38C816.29,952.32,612.1,930.02,612.1,930.02
			L612.1,930.02z"/>
		<path class="st1" d="M612,968.4v-12.53c0,0,186.47,14.51,280.41,28.26v6.54C798.22,980.52,612,968.4,612,968.4L612,968.4z"/>
		<path class="st1" d="M864.58,1044.79c0-4.55,1.13-8.92,3.13-12.14c2.01-3.22,4.73-5.03,7.56-5.03c0.04,0,0.08,0,0.12,0
			c2.84,0,5.56,1.81,7.56,5.03c2.01,3.22,3.13,7.59,3.13,12.14c0,16.29,0,38.3,0,38.3h-21.51
			C864.58,1083.09,864.58,1061.08,864.58,1044.79L864.58,1044.79z M865.24,1044.79v37.39h20.18v-37.39c0-4.33-1.07-8.48-2.97-11.55
			c-1.87-3.01-4.41-4.71-7.06-4.71c-0.04,0-0.08,0-0.12,0c-2.65,0-5.18,1.7-7.06,4.71C866.31,1036.31,865.24,1040.46,865.24,1044.79
			L865.24,1044.79z"/>
		<path class="st1" d="M797.87,1040.77c0-5.05,1.42-9.9,3.96-13.47c2.53-3.57,5.97-5.58,9.55-5.58c0.05,0,0.1,0,0.15,0
			c3.58,0,7.02,2.01,9.55,5.58c2.53,3.57,3.96,8.42,3.96,13.47c0,18.07,0,42.48,0,42.48h-27.17
			C797.87,1083.25,797.87,1058.84,797.87,1040.77L797.87,1040.77z M798.71,1040.77v41.47h25.49v-41.47c0-4.8-1.35-9.41-3.76-12.81
			c-2.36-3.33-5.57-5.22-8.91-5.22c-0.05,0-0.1,0-0.15,0c-3.35,0-6.55,1.89-8.91,5.22C800.06,1031.35,798.71,1035.96,798.71,1040.77
			L798.71,1040.77z"/>
		<path class="st1" d="M721.99,1038.11c0-5.47,1.62-10.72,4.5-14.59c2.88-3.87,6.78-6.04,10.85-6.04c0.06,0,0.12,0,0.17,0
			c4.07,0,7.98,2.17,10.85,6.04c2.88,3.87,4.5,9.12,4.5,14.59c0,19.58,0,46.03,0,46.03h-30.87
			C721.99,1084.13,721.99,1057.69,721.99,1038.11L721.99,1038.11z M722.95,1038.11v44.92h28.96v-44.92c0-5.2-1.53-10.2-4.27-13.87
			c-2.69-3.61-6.33-5.66-10.13-5.66c-0.06,0-0.12,0-0.17,0c-3.8,0-7.44,2.05-10.13,5.66
			C724.47,1027.91,722.95,1032.9,722.95,1038.11L722.95,1038.11z"/>
		<path class="st1" d="M629.24,1028.42c0-6.5,2.02-12.73,5.62-17.32c3.6-4.59,8.48-7.17,13.56-7.17c0.07,0,0.14,0,0.22,0
			c5.09,0,9.96,2.58,13.56,7.17c3.6,4.59,5.62,10.82,5.62,17.32c0,23.24,0,54.64,0,54.64h-38.57
			C629.24,1083.05,629.24,1051.66,629.24,1028.42L629.24,1028.42z M630.44,1028.42v53.33h36.18v-53.33c0-6.18-1.91-12.1-5.33-16.47
			c-3.36-4.29-7.9-6.72-12.65-6.72c-0.07,0-0.15,0-0.22,0c-4.75,0-9.29,2.43-12.65,6.72
			C632.35,1016.31,630.44,1022.24,630.44,1028.42L630.44,1028.42z"/>
		<path class="st1" d="M678.21,1032.45c0-6.2,1.94-12.14,5.39-16.53c3.45-4.38,8.13-6.85,13.01-6.85c0.07,0,0.14,0,0.21,0
			c4.88,0,9.56,2.46,13.01,6.85c3.45,4.38,5.39,10.33,5.39,16.53c0,22.18,0,52.13,0,52.13h-37.02
			C678.21,1084.58,678.21,1054.62,678.21,1032.45L678.21,1032.45z M679.36,1032.45v50.89h34.72v-50.89c0-5.89-1.83-11.55-5.11-15.72
			c-3.22-4.09-7.58-6.41-12.14-6.41c-0.07,0-0.14,0-0.21,0c-4.56,0-8.92,2.32-12.14,6.41
			C681.19,1020.9,679.36,1026.55,679.36,1032.45L679.36,1032.45z"/>
		<path class="st1" d="M759.18,1039.18c0-5.29,1.68-10.36,4.68-14.09c3-3.74,7.06-5.84,11.3-5.84c0.06,0,0.12,0,0.18,0
			c4.24,0,8.3,2.1,11.3,5.84c3,3.74,4.68,8.81,4.68,14.09c0,18.91,0,44.46,0,44.46h-32.14
			C759.18,1083.64,759.18,1058.09,759.18,1039.18L759.18,1039.18z M760.18,1039.18v43.39h30.14v-43.39c0-5.03-1.59-9.85-4.44-13.4
			c-2.8-3.49-6.58-5.46-10.54-5.46c-0.06,0-0.12,0-0.18,0c-3.96,0-7.74,1.98-10.54,5.46
			C761.77,1029.33,760.18,1034.15,760.18,1039.18L760.18,1039.18z"/>
		<path class="st1" d="M830.92,1043.59c0-4.97,1.45-9.74,4.02-13.26c2.57-3.52,6.07-5.49,9.7-5.49c0.05,0,0.1,0,0.16,0
			c3.64,0,7.13,1.98,9.71,5.49c2.57,3.52,4.02,8.29,4.02,13.26c0,17.79,0,40.07,0,40.07h-27.61
			C830.92,1083.66,830.92,1061.38,830.92,1043.59L830.92,1043.59z M831.78,1043.59v39.07h25.89v-39.07c0-4.73-1.37-9.27-3.81-12.61
			c-2.4-3.28-5.66-5.14-9.05-5.14c-0.05,0-0.1,0-0.16,0c-3.4,0-6.65,1.86-9.05,5.14C833.14,1034.33,831.78,1038.86,831.78,1043.59
			L831.78,1043.59z"/>
		<path class="st0" d="M129.28,818.91V782.5c0-4.4,1.09-8.61,3.03-11.72c1.94-3.11,4.57-4.86,7.31-4.86c0.26,0-0.26,0.13,0,0.13
			c2.74,0,5.37,1.75,7.31,4.86c1.94,3.11,3.03,7.33,3.03,11.72v36.28H129.28v0.1l20.68,0.13v-0.23h37.92v-39.05
			c0-4.71,1.27-9.23,3.52-12.57c2.25-3.33,5.31-5.21,8.49-5.21c0.3,0,0.61,0,0.91,0c3.18,0,6.24,1.87,8.49,5.21
			c2.25,3.33,3.52,7.85,3.52,12.57v39.05h-24.93v0.23h24.93v-0.23h10.14v-42.73c0-8.44,4.43-15.29,9.89-15.29c0.55,0,1.1,0,1.65,0
			c5.46,0,9.89,6.84,9.89,15.29v42.73h-21.42v0.85h21.42v-0.85h9.64v-45.92c0-5.51,1.45-10.8,4.04-14.7c2.59-3.9,6.1-6.09,9.75-6.09
			c0.35,0,0.7,0,1.05,0c3.66,0,7.17,2.19,9.75,6.09c2.59,3.9,4.04,9.19,4.04,14.7v45.92h-28.63v0.36h28.63v-0.36h15.16v-51.67
			c0-9.97,5.69-18.06,12.7-18.06c0.71,0,1.42,0,2.12,0c7.02,0,12.7,8.08,12.7,18.06v51.67h-27.53v0.17h27.53v-0.17l36.86,0.85
			v-43.58l-17.32-42.11V628.48c-111.06,13.09-144.99,22.74-246.4,57.02v135.4L129.28,818.91L129.28,818.91z M120.46,791.52
			c0,0,0.25-13-6.88-13c-0.4,0-0.8,0-1.19,0c-6.78,0-6.25,12.31-6.25,12.31l-0.78,27.39l14.31,0.69L120.46,791.52L120.46,791.52z
			 M177.7,779.41c0-7.65-3.76-13.85-8.4-13.85c-0.47,0-0.94,0-1.4,0c-4.64,0-8.4,6.2-8.4,13.85c0,16.34,0,39.31,0,39.31h18.19
			C177.7,818.72,177.7,795.75,177.7,779.41L177.7,779.41z M114.18,696.29c2.03,0,3.68,2.45,3.68,5.46c0,3.01-1.65,5.46-3.68,5.46
			c-2.03,0-3.68-2.45-3.68-5.46C110.49,698.74,112.14,696.29,114.18,696.29L114.18,696.29z M141.7,688.35c2.65,0,4.8,3.12,4.8,6.97
			c0,3.85-2.15,6.97-4.8,6.97c-2.65,0-4.8-3.12-4.8-6.97C136.89,691.47,139.05,688.35,141.7,688.35L141.7,688.35z M180.07,678.54
			c3.06,0,5.54,3.67,5.54,8.2s-2.48,8.2-5.54,8.2s-5.54-3.67-5.54-8.2S177.01,678.54,180.07,678.54L180.07,678.54z M229.83,664.52
			c3.53,0,6.39,4.33,6.39,9.65s-2.86,9.65-6.39,9.65c-3.53,0-6.39-4.32-6.39-9.65S226.3,664.52,229.83,664.52L229.83,664.52z
			 M298.52,651.1c4.07,0,7.37,5.09,7.37,11.36c0,6.27-3.3,11.36-7.37,11.36s-7.37-5.09-7.37-11.36
			C291.15,656.19,294.45,651.1,298.52,651.1L298.52,651.1z"/>
		<path class="st0" d="M325.34,818.91l36.86,0.85v-43.58l-17.32-42.11V628.48c-111.06,13.09-144.99,22.74-246.4,57.02v135.4
			l30.8-1.99V782.5c0-4.4,1.09-8.61,3.03-11.72c1.94-3.11,4.57-4.86,7.31-4.86c0.26,0-0.26,0.13,0,0.13c2.74,0,5.37,1.75,7.31,4.86
			c1.94,3.11,3.03,7.33,3.03,11.72v36.28h-20.68v0.1l20.68,0.13v-0.23h37.92v-39.05c0-4.71,1.27-9.23,3.52-12.57
			c2.25-3.33,5.31-5.21,8.49-5.21c0.3,0,0.61,0,0.91,0c3.18,0,6.24,1.87,8.49,5.21c2.25,3.33,3.52,7.85,3.52,12.57v39.05h-24.93
			v0.23h24.93v-0.23h10.14v-42.73c0-8.44,4.43-15.29,9.89-15.29c0.55,0,1.1,0,1.65,0c5.46,0,9.89,6.84,9.89,15.29v42.73h-21.42v0.85
			h21.42v-0.85h9.64v-45.92c0-5.51,1.45-10.8,4.04-14.7c2.59-3.9,6.1-6.09,9.75-6.09c0.35,0,0.7,0,1.05,0
			c3.66,0,7.17,2.19,9.75,6.09c2.59,3.9,4.04,9.19,4.04,14.7v45.92h-28.63v0.36h28.63v-0.36h15.16v-51.67
			c0-9.97,5.69-18.06,12.7-18.06c0.71,0,1.42,0,2.12,0c7.02,0,12.7,8.08,12.7,18.06V818.91h-27.53v0.17h27.53V818.91L325.34,818.91z
			 M120.46,791.52c0,0,0.25-13-6.88-13c-0.4,0-0.8,0-1.19,0c-6.78,0-6.25,12.31-6.25,12.31l-0.78,27.39l14.31,0.69L120.46,791.52
			L120.46,791.52z M177.7,779.41c0-7.65-3.76-13.85-8.4-13.85c-0.47,0-0.94,0-1.4,0c-4.64,0-8.4,6.2-8.4,13.85
			c0,16.34,0,39.31,0,39.31h18.19C177.7,818.72,177.7,795.75,177.7,779.41L177.7,779.41z M328.34,815.98l30.86,0.71v-39.92
			l-17.09-41.56c-0.15-0.36-0.23-0.75-0.23-1.14V631.86c-107.39,12.77-141.84,22.51-240.4,55.8V817.7l0.91-0.06l0.77-26.8
			c-0.02-0.8-0.06-5.33,1.31-9.02c1.32-3.57,3.85-6.29,7.94-6.29c0.4,0,0.79,0,1.19,0c4.2,0,6.85,2.81,8.29,6.48
			c1.67,4.26,1.58,9.58,1.58,9.58c0,0.01,0,0.02,0,0.03l-0.7,24.72l3.52-0.23v-33.6c0-5,1.28-9.78,3.48-13.31
			c2.58-4.14,6.21-6.27,9.86-6.27c0.53,0,0.91,0.09,1.19,0.21c3.24,0.41,6.36,2.51,8.66,6.19c2.2,3.53,3.48,8.32,3.48,13.31v33.28
			h3.55v-36.5c0-5.39,1.68-10.13,4.12-13.09c2.02-2.44,4.58-3.76,7.27-3.76h1.4c2.7,0,5.25,1.32,7.27,3.76
			c2.44,2.96,4.12,7.7,4.12,13.09v36.5h4.18v-36.05c0-5.35,1.48-10.46,4.03-14.24c2.89-4.27,6.89-6.53,10.98-6.53
			c0.3,0,0.61,0,0.91,0c4.08,0,8.09,2.25,10.98,6.53c2.55,3.78,4.03,8.9,4.03,14.24v36.05h4.14v-39.73c0-5.89,1.94-11.09,4.8-14.32
			c2.25-2.55,5.08-3.96,8.09-3.96h1.65c3.01,0,5.83,1.41,8.09,3.96c2.86,3.24,4.8,8.43,4.8,14.32v39.73h3.64v-42.92
			c0-6.14,1.66-12.02,4.54-16.36c3.22-4.86,7.69-7.43,12.25-7.43c0.35,0,0.7,0,1.05,0c4.56,0,9.03,2.57,12.25,7.43
			c2.88,4.34,4.54,10.22,4.54,16.36v42.92h9.16v-48.67c0-6.85,2.43-12.89,6.04-16.65c2.7-2.81,6.06-4.41,9.67-4.41h2.12
			c3.6,0,6.97,1.59,9.67,4.41c3.61,3.76,6.04,9.8,6.04,16.65V815.98L328.34,815.98z M114.18,693.29c-1.62,0-3.16,0.7-4.38,2.02
			c-1.34,1.46-2.3,3.78-2.3,6.44c0,2.65,0.96,4.98,2.3,6.44c1.22,1.32,2.76,2.02,4.38,2.02c1.62,0,3.16-0.7,4.38-2.02
			c1.34-1.46,2.3-3.78,2.3-6.44c0-2.65-0.96-4.98-2.3-6.44C117.34,693.99,115.8,693.29,114.18,693.29L114.18,693.29z M114.18,696.29
			c2.03,0,3.68,2.45,3.68,5.46c0,3.01-1.65,5.46-3.68,5.46c-2.03,0-3.68-2.45-3.68-5.46C110.49,698.74,112.14,696.29,114.18,696.29
			L114.18,696.29z M141.7,685.35c-1.86,0-3.62,0.8-5.02,2.29c-1.63,1.74-2.78,4.51-2.78,7.68c0,3.16,1.15,5.94,2.78,7.68
			c1.4,1.49,3.16,2.29,5.02,2.29c1.86,0,3.62-0.8,5.02-2.29c1.64-1.74,2.78-4.51,2.78-7.68c0-3.16-1.15-5.94-2.78-7.68
			C145.32,686.15,143.56,685.35,141.7,685.35L141.7,685.35z M141.7,688.35c2.65,0,4.8,3.12,4.8,6.97c0,3.85-2.15,6.97-4.8,6.97
			c-2.65,0-4.8-3.12-4.8-6.97C136.89,691.47,139.05,688.35,141.7,688.35L141.7,688.35z M180.07,675.54c-2.03,0-3.95,0.9-5.48,2.55
			c-1.8,1.96-3.06,5.09-3.06,8.65s1.26,6.69,3.06,8.65c1.52,1.66,3.44,2.55,5.48,2.55c2.03,0,3.95-0.9,5.48-2.55
			c1.8-1.96,3.06-5.09,3.06-8.65s-1.26-6.69-3.06-8.65C184.02,676.44,182.1,675.54,180.07,675.54L180.07,675.54z M180.07,678.54
			c3.06,0,5.54,3.67,5.54,8.2s-2.48,8.2-5.54,8.2s-5.54-3.67-5.54-8.2S177.01,678.54,180.07,678.54L180.07,678.54z M229.83,661.52
			c-2.23,0-4.33,1-6,2.85c-2,2.22-3.39,5.77-3.39,9.8s1.39,7.58,3.39,9.8c1.67,1.85,3.77,2.85,6,2.85c2.23,0,4.33-1,6-2.85
			c2-2.22,3.39-5.77,3.39-9.8s-1.39-7.58-3.39-9.8C234.16,662.53,232.06,661.52,229.83,661.52L229.83,661.52z M229.83,664.52
			c3.53,0,6.39,4.33,6.39,9.65s-2.86,9.65-6.39,9.65c-3.53,0-6.39-4.32-6.39-9.65S226.3,664.52,229.83,664.52L229.83,664.52z
			 M298.52,648.1c-2.45,0-4.76,1.13-6.6,3.21c-2.23,2.52-3.77,6.57-3.77,11.16c0,4.59,1.54,8.63,3.77,11.16
			c1.84,2.08,4.15,3.21,6.6,3.21c2.45,0,4.76-1.13,6.6-3.21c2.23-2.52,3.77-6.57,3.77-11.16c0-4.59-1.54-8.64-3.77-11.16
			C303.28,649.23,300.97,648.1,298.52,648.1L298.52,648.1z M298.52,651.1c4.07,0,7.37,5.09,7.37,11.36c0,6.27-3.3,11.36-7.37,11.36
			s-7.37-5.09-7.37-11.36C291.15,656.19,294.45,651.1,298.52,651.1L298.52,651.1z"/>
		<path class="st0" d="M344.88,705.14v-11.46c0,0-229.53,28.57-251.64,31.08c-0.71,0.08-1.36,0.66-1.81,1.62
			c-0.45,0.96-0.68,2.21-0.61,3.48c0,0.03,0,0.06,0.01,0.09c0.06,1.27,0.4,2.46,0.95,3.31c0.54,0.84,1.24,1.27,1.95,1.19
			C115.81,731.94,344.88,705.14,344.88,705.14L344.88,705.14z"/>
		<path class="st1" d="M222.95,776.18c0-8.44,4.43-15.29,9.89-15.29c0.55,0,1.1,0,1.65,0c5.46,0,9.89,6.84,9.89,15.29v45.57h1.8
			c0,0,0-29.06,0-48.09c0-8.91-4.8-16.13-10.71-16.13c-0.6,0-1.19,0-1.79,0c-5.92,0-10.71,7.22-10.71,16.13V776.18L222.95,776.18z
			 M297.81,767.24c0-9.97,5.69-18.06,12.7-18.06c0.71,0,1.42,0,2.12,0c7.02,0,12.7,8.08,12.7,18.06v53.83h2.31c0,0,0-34.33,0-56.8
			c0-10.52-6.17-19.05-13.77-19.05c-0.77,0-1.54,0-2.3,0c-7.6,0-13.77,8.53-13.77,19.05V767.24L297.81,767.24z M159.51,779.41
			c0-7.65,3.76-13.85,8.4-13.85c0.47,0,0.94,0,1.4,0c4.64,0,8.4,6.2,8.4,13.85v41.3h1.52c0,0,0-26.34,0-43.58
			c0-8.07-4.07-14.62-9.1-14.62c-0.51,0-1.02,0-1.52,0c-5.02,0-9.1,6.54-9.1,14.62V779.41L159.51,779.41z M105.54,791.5
			c0-6.93,2.59-12.55,6.53-12.55c0.4,0,0.79,0,1.19,0c3.94,0,7.13,5.62,7.13,12.55v37.42h1.3c0,0,0-24.05,0-39.49
			c0-6.83-3.37-13.19-7.73-13.25c-0.43-0.01-0.86,0-1.29,0c-4.27,0-7.03,5.93-7.03,13.25L105.54,791.5L105.54,791.5z"/>
		<path class="st1" d="M257.01,760.05c0.32-0.61,0.67-1.2,1.04-1.77c2.59-3.9,6.1-6.09,9.75-6.09c0.35,0,0.7,0,1.05,0
			c3.66,0,7.17,2.19,9.75,6.09c2.59,3.9,4.04,9.19,4.04,14.7c0,20.34,0,48.27,0,48.27h1.76c0,0,0-29.57,0-51.09
			c0-5.84-1.47-11.43-4.09-15.56c-2.62-4.13-6.16-6.45-9.86-6.45c-0.35,0-0.71,0-1.06,0c-3.7,0-7.25,2.32-9.87,6.45
			C258.52,756.22,257.67,758.06,257.01,760.05L257.01,760.05z M189.01,772.34c0.59-1.86,1.39-3.57,2.39-5.04
			c2.25-3.33,5.31-5.21,8.49-5.21c0.3,0,0.61,0,0.91,0c3.18,0,6.24,1.87,8.49,5.21c2.25,3.33,3.52,7.85,3.52,12.57v41.25h0.96
			c0,0,0-25.27,0-43.67c0-4.99-1.28-9.77-3.56-13.3c-2.28-3.53-5.37-5.51-8.59-5.51c-0.31,0-0.61,0-0.92,0
			c-3.22,0-6.31,1.98-8.59,5.51C190.63,766.44,189.57,769.27,189.01,772.34L189.01,772.34z M129.28,784.06
			c0-4.4,1.09-8.62,3.03-11.72c1.94-3.11,4.57-4.86,7.31-4.86c0.26,0-0.26,0.13,0,0.13c2.74,0,5.37,1.75,7.31,4.86
			c1.94,3.11,3.03,7.33,3.03,11.72v36.78h1.03c0,0,0-22.02,0-39.18c0-4.65-1.1-9.12-3.06-12.41c-1.96-3.29-4.62-5.14-7.4-5.14
			c-0.26,0-0.53,0-0.79,0c-2.77,0-5.43,1.85-7.4,5.14c-1.96,3.29-3.06,7.76-3.06,12.41V784.06L129.28,784.06z"/>
		<path class="st1" d="M345.07,708.53v-10.71c0,0-180.17,20.32-246.79,35.89v6.38C165.31,726.5,345.07,708.53,345.07,708.53
			L345.07,708.53z"/>
		<path class="st1" d="M344.79,688.67v-10.71c0,0-179.94,24.65-246.43,40.19v6.38C165.25,710.96,344.79,688.67,344.79,688.67
			L344.79,688.67z"/>
		<path class="st1" d="M344.87,727.04v-14.06c0,0-164.17,17.75-246.51,35.63v6.06C183.05,739.15,344.87,727.04,344.87,727.04
			L344.87,727.04z"/>
		<path class="st1" d="M122.95,789.2c0-3.76-0.99-7.37-2.75-10.03c-1.76-2.66-4.16-4.15-6.65-4.15c-0.04,0-0.07,0-0.11,0
			c-2.49,0-4.89,1.49-6.65,4.15c-1.76,2.66-2.75,6.27-2.75,10.03c0,13.45,0,31.63,0,31.63h18.91
			C122.95,820.83,122.95,802.66,122.95,789.2L122.95,789.2z M122.37,789.2v30.87h-17.74V789.2c0-3.58,0.94-7.01,2.61-9.54
			c1.65-2.48,3.88-3.89,6.2-3.89c0.03,0,0.07,0,0.11,0c2.33,0,4.56,1.41,6.2,3.89C121.43,782.2,122.37,785.63,122.37,789.2
			L122.37,789.2z"/>
		<path class="st1" d="M181.61,778.51c0-5.05-1.25-9.9-3.48-13.47c-2.23-3.57-5.25-5.58-8.4-5.58c-0.05,0-0.09,0-0.14,0
			c-3.15,0-6.17,2.01-8.4,5.58c-2.23,3.57-3.48,8.42-3.48,13.47c0,18.07,0,42.48,0,42.48h23.89
			C181.61,820.99,181.61,796.58,181.61,778.51L181.61,778.51z M180.87,778.51v41.47h-22.41v-41.47c0-4.8,1.18-9.41,3.3-12.81
			c2.08-3.33,4.9-5.22,7.84-5.22c0.04,0,0.09,0,0.14,0c2.94,0,5.76,1.89,7.84,5.22C179.68,769.09,180.87,773.7,180.87,778.51
			L180.87,778.51z"/>
		<path class="st1" d="M248.32,775.85c0-5.47-1.42-10.72-3.95-14.59c-2.53-3.87-5.96-6.04-9.54-6.04c-0.05,0-0.1,0-0.15,0
			c-3.58,0-7.01,2.17-9.54,6.04c-2.53,3.87-3.95,9.12-3.95,14.59c0,19.58,0,46.03,0,46.03h27.15
			C248.32,821.87,248.32,795.43,248.32,775.85L248.32,775.85z M247.48,775.85v44.92h-25.46v-44.92c0-5.2,1.34-10.2,3.75-13.88
			c2.36-3.61,5.56-5.66,8.9-5.66c0.05,0,0.1,0,0.15,0c3.34,0,6.54,2.05,8.9,5.66C246.14,765.65,247.48,770.64,247.48,775.85
			L247.48,775.85z"/>
		<path class="st1" d="M329.87,766.16c0-6.5-1.78-12.73-4.94-17.32c-3.16-4.59-7.45-7.17-11.92-7.17c-0.06,0-0.13,0-0.19,0
			c-4.47,0-8.76,2.58-11.92,7.17c-3.16,4.59-4.94,10.82-4.94,17.32c0,23.24,0,54.64,0,54.64h33.91
			C329.87,820.79,329.87,789.4,329.87,766.16L329.87,766.16z M328.82,766.16v53.33h-31.81v-53.33c0-6.18,1.68-12.1,4.69-16.47
			c2.95-4.29,6.95-6.72,11.12-6.72c0.06,0,0.13,0,0.19,0c4.17,0,8.17,2.43,11.12,6.72C327.14,754.05,328.82,759.98,328.82,766.16
			L328.82,766.16z"/>
		<path class="st1" d="M286.81,770.19c0-6.2-1.71-12.14-4.74-16.53c-3.03-4.38-7.15-6.85-11.44-6.85c-0.06,0-0.12,0-0.18,0
			c-4.29,0-8.41,2.46-11.44,6.85c-3.03,4.38-4.74,10.33-4.74,16.53c0,22.18,0,52.13,0,52.13h32.54
			C286.81,822.32,286.81,792.36,286.81,770.19L286.81,770.19z M285.8,770.19v50.89h-30.53v-50.89c0-5.89,1.61-11.55,4.5-15.72
			c2.83-4.09,6.67-6.41,10.67-6.41c0.06,0,0.12,0,0.18,0c4.01,0,7.84,2.32,10.67,6.41C284.19,758.64,285.8,764.29,285.8,770.19
			L285.8,770.19z"/>
		<path class="st1" d="M215.62,776.92c0-5.29-1.48-10.36-4.11-14.09c-2.64-3.74-6.21-5.84-9.93-5.84c-0.05,0-0.11,0-0.16,0
			c-3.73,0-7.3,2.1-9.93,5.84c-2.63,3.74-4.11,8.81-4.11,14.09c0,18.91,0,44.46,0,44.46h28.26
			C215.62,821.38,215.62,795.83,215.62,776.92L215.62,776.92z M214.74,776.92v43.39h-26.5v-43.39c0-5.03,1.4-9.85,3.9-13.4
			c2.46-3.49,5.79-5.47,9.27-5.47c0.05,0,0.11,0,0.16,0c3.48,0,6.81,1.98,9.27,5.47C213.34,767.07,214.74,771.89,214.74,776.92
			L214.74,776.92z"/>
		<path class="st1" d="M152.55,781.33c0-4.97-1.27-9.74-3.53-13.26c-2.26-3.52-5.33-5.49-8.53-5.49c-0.05,0-0.09,0-0.14,0
			c-3.2,0-6.27,1.98-8.53,5.49c-2.26,3.52-3.53,8.29-3.53,13.26c0,17.79,0,40.07,0,40.07h24.27
			C152.55,821.4,152.55,799.12,152.55,781.33L152.55,781.33z M151.79,781.33v39.07h-22.76v-39.07c0-4.73,1.2-9.26,3.35-12.61
			c2.11-3.28,4.97-5.14,7.96-5.14c0.05,0,0.09,0,0.14,0c2.99,0,5.85,1.86,7.96,5.14C150.59,772.07,151.79,776.6,151.79,781.33
			L151.79,781.33z"/>
		<path class="st0" d="M442.07,809.63v-11.46c0,0-324,31.1-349.15,33.61c-0.8,0.08-1.54,0.66-2.06,1.62
			c-0.52,0.96-0.77,2.21-0.7,3.48c0,0.03,0,0.06,0.01,0.09c0.07,1.27,0.46,2.46,1.08,3.31c0.62,0.84,1.42,1.27,2.22,1.19
			C118.61,838.96,442.07,809.63,442.07,809.63L442.07,809.63z"/>
		<path class="st0" d="M356.73,948.82l24.07-1.57v-63.41c0-8.32,6.74-15.07,15.07-15.07c0.29,0,0.59,0,0.88,0
			c8.32,0,15.07,6.75,15.07,15.07v61.39l-31.02,2.02v0.52h31.02v-2.54l49.82-3.25l-3.13-53.16l-16.56-42.61v-77.16
			c-126.31,13.09-217.43,18.2-343.23,44.37v135.4h35.03v-38.4c0-4.4,1.24-8.61,3.45-11.72c2.2-3.11,5.2-4.86,8.32-4.86
			c0.3,0-0.3,0.13,0,0.13c3.12,0,6.11,1.75,8.32,4.86c2.21,3.11,3.44,7.33,3.44,11.72v38.27h-23.52v0.1l23.52,0.13v-0.23h43.13
			v-41.03c0-4.71,1.44-9.23,4-12.57c2.56-3.33,6.03-5.21,9.66-5.21c0.35,0,0.69,0,1.04,0c3.62,0,7.1,1.87,9.66,5.21
			c2.56,3.33,4,7.85,4,12.57v41.03H200.4v0.23h28.35v-0.23h11.54V904.1c0-8.44,5.03-15.29,11.24-15.29c0.63,0,1.25,0,1.88,0
			c6.21,0,11.24,6.84,11.24,15.29v44.72h-24.37v0.85h24.37v-0.85h10.97v-47.91c0-5.51,1.65-10.8,4.6-14.7
			c2.94-3.9,6.93-6.09,11.09-6.09c0.4,0,0.79,0,1.19,0c4.16,0,8.15,2.19,11.09,6.09c2.94,3.9,4.59,9.19,4.59,14.7v47.91h-32.57v0.36
			h32.57v-0.36h17.24v-53.65c0-9.97,6.47-18.06,14.45-18.06c0.8,0,1.61,0,2.41,0c7.98,0,14.45,8.08,14.45,18.06V948.82h-31.31v0.17
			h31.31V948.82L356.73,948.82z M188.82,907.33c0-7.65-4.27-13.85-9.55-13.85c-0.53,0-1.06,0-1.59,0c-5.27,0-9.55,6.2-9.55,13.85
			c0,16.34,0,41.3,0,41.3h20.69C188.82,948.63,188.82,923.67,188.82,907.33L188.82,907.33z M123.12,910.95
			c0-6.93-3.63-12.55-8.11-12.55c-0.45,0-0.9,0-1.35,0c-4.48,0-6.82,4.93-6.82,11.86c0,14.8,0,37.42,0,37.42l16.28,0.69
			C123.12,948.37,123.12,925.75,123.12,910.95L123.12,910.95z"/>
		<path class="st0" d="M325.42,948.99h31.31v-0.17h-31.31V948.99L325.42,948.99z M188.82,907.33c0-7.65-4.27-13.85-9.55-13.85
			c-0.53,0-1.06,0-1.59,0c-5.27,0-9.55,6.2-9.55,13.85c0,16.34,0,41.3,0,41.3h20.69C188.82,948.63,188.82,923.67,188.82,907.33
			L188.82,907.33z M123.12,910.95c0-6.93-3.63-12.55-8.11-12.55c-0.45,0-0.9,0-1.35,0c-4.48,0-6.82,4.93-6.82,11.86
			c0,14.8,0,37.42,0,37.42l16.28,0.69C123.12,948.37,123.12,925.75,123.12,910.95L123.12,910.95z M414.82,942.02l43.65-2.85
			l-2.93-49.72l-16.39-42.17c-0.13-0.35-0.2-0.72-0.2-1.09v-73.83c-123.69,12.74-213.87,17.99-337.23,43.49v129.96h2.13v-35.56
			c0-4.06,0.76-7.51,2.09-9.97c1.72-3.16,4.35-4.9,7.72-4.9h1.35c2.61,0,5.08,1.22,7.04,3.44c2.41,2.74,4.07,7.13,4.07,12.12v34.87
			h4.62v-35.4c0-5.05,1.46-9.89,4-13.46c2.84-4,6.75-6.12,10.76-6.12c0.5,0,0.9,0.08,1.22,0.2c3.58,0.39,6.99,2.46,9.54,6.05
			c2.54,3.57,4,8.41,4,13.46v35.27h4.86v-38.49c0-5.45,1.91-10.24,4.72-13.23c2.18-2.32,4.91-3.62,7.83-3.62h1.59
			c2.91,0,5.64,1.3,7.82,3.62c2.81,2.99,4.72,7.79,4.72,13.23v38.49h5.58v-38.03c0-5.4,1.69-10.57,4.62-14.39
			c3.18-4.14,7.54-6.38,12.04-6.38c0.35,0,0.69,0,1.04,0c4.5,0,8.86,2.24,12.04,6.38c2.94,3.82,4.62,8.99,4.62,14.39v38.03h5.54
			V904.1c0-10.31,6.66-18.29,14.24-18.29h1.88c7.58,0,14.24,7.97,14.24,18.29v41.72h4.97v-44.91c0-6.2,1.89-12.13,5.2-16.51
			c3.56-4.72,8.45-7.28,13.49-7.28c0.4,0,0.79,0,1.19,0c5.04,0,9.92,2.56,13.49,7.28c3.31,4.38,5.2,10.31,5.2,16.51v44.91h11.24
			v-50.65c0-11.79,8.01-21.06,17.45-21.06h2.41c9.44,0,17.45,9.26,17.45,21.06v50.45l18.07-1.18v-60.6
			c0-9.98,8.09-18.07,18.07-18.07c0.29,0,0.59,0,0.88,0c9.98,0,18.07,8.09,18.07,18.07V942.02L414.82,942.02z M145.62,890.97
			l-0.11,0L145.62,890.97L145.62,890.97z M356.73,948.82l24.07-1.57v-63.41c0-8.32,6.74-15.07,15.07-15.07c0.29,0,0.59,0,0.88,0
			c8.32,0,15.07,6.75,15.07,15.07v61.39l-31.02,2.02v0.52h31.02v-2.54l49.82-3.25l-3.13-53.16l-16.56-42.61v-77.16
			c-126.31,13.09-217.43,18.2-343.23,44.37v135.4h35.03v-38.4c0-4.4,1.24-8.61,3.45-11.72c2.2-3.11,5.2-4.86,8.32-4.86
			c0.3,0-0.3,0.13,0,0.13c3.12,0,6.11,1.75,8.32,4.86c2.21,3.11,3.44,7.33,3.44,11.72v38.27h-23.52v0.1l23.52,0.13v-0.23h43.13
			v-41.03c0-4.71,1.44-9.23,4-12.57c2.56-3.33,6.03-5.21,9.66-5.21c0.35,0,0.69,0,1.04,0c3.62,0,7.1,1.87,9.66,5.21
			c2.56,3.33,4,7.85,4,12.57v41.03H200.4v0.23h28.35v-0.23h11.54V904.1c0-8.44,5.03-15.29,11.24-15.29c0.63,0,1.25,0,1.88,0
			c6.21,0,11.24,6.84,11.24,15.29v44.72h-24.37v0.85h24.37v-0.85h10.97v-47.91c0-5.51,1.65-10.8,4.6-14.7
			c2.94-3.9,6.93-6.09,11.09-6.09c0.4,0,0.79,0,1.19,0c4.16,0,8.15,2.19,11.09,6.09c2.94,3.9,4.59,9.19,4.59,14.7v47.91h-32.57v0.36
			h32.57v-0.36h17.24v-53.65c0-9.97,6.47-18.06,14.45-18.06c0.8,0,1.61,0,2.41,0c7.98,0,14.45,8.08,14.45,18.06V948.82
			L356.73,948.82z"/>
		<path class="st1" d="M240.28,904.1c0-8.44,5.03-15.29,11.24-15.29c0.63,0,1.25,0,1.88,0c6.21,0,11.24,6.84,11.24,15.29v45.57h2.04
			c0,0,0-29.06,0-48.08c0-8.91-5.46-16.13-12.19-16.13c-0.68,0-1.36,0-2.04,0c-6.73,0-12.19,7.22-12.19,16.13V904.1L240.28,904.1z
			 M325.42,895.16c0-9.97,6.47-18.06,14.45-18.06c0.8,0,1.61,0,2.41,0c7.98,0,14.45,8.08,14.45,18.06v53.83h2.62c0,0,0-34.33,0-56.8
			c0-10.52-7.01-19.05-15.66-19.05c-0.87,0-1.75,0-2.62,0c-8.65,0-15.66,8.53-15.66,19.05V895.16L325.42,895.16z M168.12,907.33
			c0-7.65,4.27-13.85,9.55-13.85c0.53,0,1.07,0,1.59,0c5.27,0,9.55,6.2,9.55,13.85v41.3h1.73c0,0,0-26.34,0-43.58
			c0-8.07-4.63-14.62-10.35-14.62c-0.58,0-1.15,0-1.73,0c-5.72,0-10.35,6.54-10.35,14.62V907.33L168.12,907.33z M106.26,910.76
			c0-6.93,2.94-12.55,7.42-12.55c0.45,0,0.9,0,1.35,0c4.48,0,8.11,5.62,8.11,12.55v37.43h1.47c0,0,0-23.87,0-39.49
			c0-7.32-3.93-13.25-8.79-13.25c-0.49,0-0.98,0-1.47,0c-4.85,0-7.99,5.93-7.99,13.25L106.26,910.76L106.26,910.76z"/>
		<path class="st1" d="M380.28,887.23c0-9.97,6.47-18.06,14.45-18.06c0.8,0,1.61,0,2.41,0c7.98,0,14.45,8.08,14.45,18.06v53.83h2.62
			c0,0,0-34.33,0-56.8c0-10.52-7.01-19.05-15.66-19.05c-0.87,0-1.75,0-2.62,0c-8.65,0-15.66,8.53-15.66,19.05V887.23L380.28,887.23z
			"/>
		<path class="st1" d="M279.03,887.97c0.37-0.61,0.76-1.2,1.19-1.76c2.94-3.9,6.93-6.09,11.09-6.09c0.4,0,0.79,0,1.19,0
			c4.16,0,8.15,2.19,11.09,6.09c2.94,3.9,4.59,9.19,4.59,14.7c0,20.34,0,48.27,0,48.27h2.01c0,0,0-29.57,0-51.09
			c0-5.84-1.67-11.43-4.65-15.56c-2.98-4.13-7.01-6.44-11.22-6.44c-0.4,0-0.8,0-1.21,0c-4.21,0-8.24,2.32-11.22,6.44
			C280.73,884.14,279.77,885.98,279.03,887.97L279.03,887.97z M201.68,900.26c0.67-1.86,1.58-3.57,2.72-5.04
			c2.56-3.33,6.03-5.21,9.66-5.21c0.35,0,0.69,0,1.04,0c3.62,0,7.1,1.87,9.66,5.21c2.56,3.33,4,7.85,4,12.57v41.25h1.09
			c0,0,0-25.27,0-43.67c0-4.99-1.46-9.77-4.05-13.3c-2.59-3.53-6.1-5.51-9.77-5.51c-0.35,0-0.7,0-1.05,0
			c-3.66,0-7.18,1.98-9.77,5.51C203.52,894.36,202.32,897.19,201.68,900.26L201.68,900.26z M133.74,911.98
			c0-4.4,1.24-8.61,3.45-11.72c2.2-3.11,5.2-4.86,8.32-4.86c0.3,0-0.3,0.13,0,0.13c3.12,0,6.11,1.75,8.32,4.86
			c2.21,3.11,3.44,7.33,3.44,11.72v36.78h1.17c0,0,0-22.02,0-39.18c0-4.65-1.25-9.12-3.48-12.41c-2.23-3.29-5.26-5.14-8.41-5.14
			c-0.3,0-0.6,0-0.9,0c-3.16,0-6.18,1.85-8.41,5.14c-2.23,3.29-3.48,7.75-3.48,12.41V911.98L133.74,911.98z"/>
		<path class="st1" d="M442.29,813.02V802.3c0,0-267.85,22.85-343.62,38.42v6.38C174.91,833.52,442.29,813.02,442.29,813.02
			L442.29,813.02z"/>
		<path class="st1" d="M441.97,793.15v-10.71c0,0-267.6,27.18-343.22,42.71v6.38C174.83,817.98,441.97,793.15,441.97,793.15
			L441.97,793.15z"/>
		<path class="st1" d="M442.07,831.53v-12.53c0,0-249.41,17.04-343.35,30.79v6.54C192.91,846.18,442.07,831.53,442.07,831.53
			L442.07,831.53z"/>
		<path class="st1" d="M126.55,910.45c0-4.55-1.13-8.92-3.13-12.14c-2.01-3.22-4.73-5.03-7.56-5.03c-0.04,0-0.08,0-0.12,0
			c-2.84,0-5.56,1.81-7.56,5.03c-2.01,3.22-3.13,7.59-3.13,12.14c0,16.29,0,38.3,0,38.3h21.51
			C126.55,948.75,126.55,926.74,126.55,910.45L126.55,910.45z M125.88,910.45v37.39h-20.18v-37.39c0-4.33,1.06-8.48,2.97-11.55
			c1.87-3.01,4.41-4.71,7.06-4.71c0.04,0,0.08,0,0.12,0c2.65,0,5.18,1.7,7.06,4.71C124.82,901.96,125.88,906.12,125.88,910.45
			L125.88,910.45z"/>
		<path class="st1" d="M193.26,906.42c0-5.05-1.42-9.9-3.96-13.47c-2.53-3.57-5.97-5.58-9.55-5.58c-0.05,0-0.1,0-0.15,0
			c-3.58,0-7.02,2.01-9.55,5.58c-2.53,3.57-3.96,8.42-3.96,13.47c0,18.07,0,42.48,0,42.48h27.17
			C193.26,948.91,193.26,924.5,193.26,906.42L193.26,906.42z M192.42,906.42v41.47h-25.49v-41.47c0-4.8,1.35-9.41,3.75-12.81
			c2.37-3.33,5.57-5.22,8.91-5.22c0.05,0,0.1,0,0.15,0c3.35,0,6.55,1.89,8.91,5.22C191.07,897.01,192.42,901.62,192.42,906.42
			L192.42,906.42z"/>
		<path class="st1" d="M269.14,903.77c0-5.47-1.62-10.72-4.5-14.59c-2.88-3.87-6.78-6.04-10.85-6.04c-0.06,0-0.12,0-0.17,0
			c-4.07,0-7.98,2.17-10.85,6.04c-2.88,3.87-4.5,9.12-4.5,14.59c0,19.58,0,46.03,0,46.03h30.87
			C269.14,949.79,269.14,923.34,269.14,903.77L269.14,903.77z M268.18,903.77v44.92h-28.96v-44.92c0-5.2,1.53-10.2,4.27-13.87
			c2.69-3.61,6.33-5.66,10.13-5.66c0.06,0,0.12,0,0.17,0c3.8,0,7.44,2.04,10.13,5.66C266.65,893.57,268.18,898.56,268.18,903.77
			L268.18,903.77z"/>
		<path class="st1" d="M361.83,894.18c0-6.5-2.02-12.73-5.62-17.32c-3.6-4.59-8.47-7.17-13.56-7.17c-0.07,0-0.14,0-0.22,0
			c-5.09,0-9.96,2.58-13.56,7.17c-3.6,4.59-5.62,10.82-5.62,17.32c0,23.24,0,54.64,0,54.64h38.57
			C361.83,948.82,361.83,917.42,361.83,894.18L361.83,894.18z M360.63,894.18v53.33h-36.18v-53.33c0-6.18,1.91-12.1,5.33-16.47
			c3.36-4.29,7.9-6.72,12.65-6.72c0.07,0,0.14,0,0.22,0c4.75,0,9.29,2.43,12.65,6.72C358.72,882.08,360.63,888.01,360.63,894.18
			L360.63,894.18z"/>
		<path class="st1" d="M416.34,885.76c0-6.5-2.02-12.73-5.62-17.32c-3.6-4.59-8.47-7.17-13.56-7.17c-0.07,0-0.14,0-0.22,0
			c-5.09,0-9.96,2.58-13.56,7.17c-3.6,4.59-5.62,10.82-5.62,17.32c0,23.24,0,54.64,0,54.64h38.57
			C416.34,940.39,416.34,909,416.34,885.76L416.34,885.76z M415.14,885.76v53.33h-36.18v-53.33c0-6.18,1.91-12.1,5.33-16.47
			c3.36-4.29,7.9-6.72,12.65-6.72c0.07,0,0.14,0,0.22,0c4.75,0,9.29,2.43,12.65,6.72C413.23,873.65,415.14,879.58,415.14,885.76
			L415.14,885.76z"/>
		<path class="st1" d="M312.92,898.1c0-6.2-1.94-12.14-5.39-16.53c-3.45-4.38-8.13-6.85-13.01-6.85c-0.07,0-0.14,0-0.21,0
			c-4.88,0-9.56,2.46-13.01,6.85c-3.45,4.38-5.39,10.33-5.39,16.53c0,22.18,0,52.14,0,52.14h37.02
			C312.92,950.24,312.92,920.28,312.92,898.1L312.92,898.1z M311.77,898.1v50.89h-34.72V898.1c0-5.89,1.83-11.55,5.12-15.72
			c3.22-4.09,7.58-6.41,12.14-6.41c0.07,0,0.14,0,0.21,0c4.56,0,8.92,2.32,12.14,6.41C309.94,886.56,311.77,892.21,311.77,898.1
			L311.77,898.1z"/>
		<path class="st1" d="M231.95,904.84c0-5.29-1.68-10.36-4.68-14.09c-3-3.74-7.06-5.84-11.3-5.84c-0.06,0-0.12,0-0.18,0
			c-4.24,0-8.3,2.1-11.3,5.84c-3,3.74-4.68,8.81-4.68,14.09c0,18.91,0,44.46,0,44.46h32.14
			C231.95,949.3,231.95,923.75,231.95,904.84L231.95,904.84z M230.95,904.84v43.39h-30.14v-43.39c0-5.03,1.59-9.85,4.44-13.4
			c2.8-3.49,6.59-5.47,10.54-5.47c0.06,0,0.12,0,0.18,0c3.96,0,7.74,1.98,10.54,5.47C229.36,894.99,230.95,899.81,230.95,904.84
			L230.95,904.84z"/>
		<path class="st1" d="M160.21,909.25c0-4.97-1.45-9.74-4.02-13.26c-2.57-3.52-6.06-5.49-9.7-5.49c-0.05,0-0.1,0-0.16,0
			c-3.64,0-7.13,1.98-9.7,5.49c-2.57,3.52-4.02,8.29-4.02,13.26c0,17.79,0,40.07,0,40.07h27.61
			C160.21,949.32,160.21,927.04,160.21,909.25L160.21,909.25z M159.35,909.25v39.07h-25.89v-39.07c0-4.73,1.37-9.26,3.81-12.61
			c2.4-3.28,5.66-5.14,9.05-5.14c0.05,0,0.1,0,0.16,0c3.4,0,6.65,1.86,9.05,5.14C157.99,899.99,159.35,904.52,159.35,909.25
			L159.35,909.25z"/>
		<path class="st0" d="M597.95,924.49c0,0-458.91,37.77-510.13,41.61c-1.07,0.08-2.06,0.66-2.75,1.62
			c-0.69,0.96-1.02,2.21-0.93,3.48c0,0.03,0,0.06,0.01,0.09c0.09,1.27,0.61,2.46,1.44,3.31c0.83,0.84,1.89,1.27,2.96,1.19
			c51.22-3.84,509.4-39.19,509.4-39.19V924.49L597.95,924.49z"/>
		<path class="st0" d="M142.31,1083.14v-38.4c0-4.4,1.65-8.61,4.6-11.72c2.94-3.11,6.94-4.86,11.1-4.86c0.4,0-0.4,0.13,0,0.13
			c4.16,0,8.16,1.75,11.1,4.86c2.94,3.11,4.6,7.33,4.6,11.72v38.27H142.31v0.1l31.4,0.13v-0.23h57.57v-41.03
			c0-4.71,1.92-9.23,5.34-12.57c3.42-3.33,8.05-5.21,12.89-5.21c0.46,0,0.92,0,1.39,0c4.83,0,9.47,1.87,12.89,5.21
			c3.42,3.33,5.34,7.85,5.34,12.57v41.03h-37.85v0.23h37.85v-0.23h15.4v-44.71c0-8.44,6.72-15.29,15.01-15.29c0.83,0,1.67,0,2.51,0
			c8.29,0,15.01,6.84,15.01,15.29v44.71h-32.52v0.85h32.52v-0.85h14.64v-47.91c0-5.51,2.21-10.8,6.13-14.7
			c3.93-3.9,9.25-6.09,14.81-6.09c0.53,0,1.06,0,1.59,0c5.55,0,10.88,2.19,14.81,6.09c3.93,3.9,6.13,9.19,6.13,14.7v47.91h-43.47
			v0.36h43.47v-0.36h23.01v-53.65c0-9.97,8.64-18.06,19.29-18.06c1.07,0,2.15,0,3.22,0c10.65,0,19.29,8.08,19.29,18.06v53.65h-41.8
			v0.18h41.8v-0.18l77.49-0.44h0.07l0,0l31.99-0.18h48.42v-0.28l40.07,1.76v-45.57l-40.07-74.86V904.1
			c-166.99,2.7-334.46,17.47-502.39,43.64v135.4H142.31L142.31,1083.14z M215.82,1041.65c0-7.65-5.71-13.85-12.74-13.85
			c-0.71,0-1.42,0-2.13,0c-7.04,0-12.75,6.2-12.75,13.85c0,16.34,0,41.3,0,41.3h27.62C215.82,1082.95,215.82,1057.99,215.82,1041.65
			L215.82,1041.65z M517.52,1082.7v-59.29c0-6.77-2.63-13.27-7.32-18.06c-4.69-4.79-11.05-7.48-17.68-7.48c-0.63,0-1.27,0-1.9,0
			c-6.63,0-12.99,2.69-17.68,7.48c-4.69,4.79-7.32,11.28-7.32,18.06c0,24.98,0,59.29,0,59.29h51.83H517.52L517.52,1082.7z
			 M597.93,1082.23v-63.31c0-11.78-11.1-21.33-24.79-21.33c-1.38,0-2.76,0-4.14,0c-13.69,0-24.79,9.55-24.79,21.33
			c0,25.15,0,63.58,0,63.58h5.29L597.93,1082.23L597.93,1082.23z M128.13,1045.27c0-6.93-4.85-12.55-10.82-12.55
			c-0.6,0-1.21,0-1.81,0c-5.98,0-9.1,4.93-9.1,11.86c0,14.81,0,37.43,0,37.43l21.73,0.69
			C128.13,1082.7,128.13,1060.08,128.13,1045.27L128.13,1045.27z"/>
		<path class="st0" d="M145.3,1083.25l0-0.03L145.3,1083.25l28.4,0.12v-0.23h57.57v-41.03c0-4.71,1.92-9.23,5.34-12.57
			c3.42-3.33,8.05-5.21,12.89-5.21c0.46,0,0.92,0,1.39,0c4.83,0,9.47,1.87,12.89,5.21c3.42,3.33,5.34,7.85,5.34,12.57v41.03h-37.85
			v0.23h37.85v-0.23h15.4v-44.71c0-8.44,6.72-15.29,15.01-15.29c0.83,0,1.67,0,2.51,0c8.29,0,15.01,6.84,15.01,15.29v44.71h-32.52
			v0.85h32.52v-0.85h14.64v-47.91c0-5.51,2.21-10.8,6.13-14.7c3.93-3.9,9.25-6.09,14.81-6.09c0.53,0,1.06,0,1.59,0
			c5.55,0,10.88,2.19,14.81,6.09c3.93,3.9,6.13,9.19,6.13,14.7v47.91h-43.47v0.36h43.47v-0.36h23.01v-53.65
			c0-9.97,8.64-18.06,19.29-18.06c1.07,0,2.15,0,3.22,0c10.65,0,19.29,8.08,19.29,18.06v53.65h-41.8v0.18h41.8v-0.18l109.54-0.63
			h48.42v-0.28l40.07,1.76v-45.57l-40.07-74.86V904.1c-166.99,2.7-334.46,17.47-502.39,43.64v135.4h46.76v-38.4
			c0-4.4,1.65-8.61,4.6-11.72c2.94-3.11,6.94-4.86,11.1-4.86c0.4,0-0.4,0.13,0,0.13c4.16,0,8.16,1.75,11.1,4.86
			c2.94,3.11,4.6,7.33,4.6,11.72v38.27h-31.4v0.1L145.3,1083.25L145.3,1083.25z M215.82,1041.65c0-7.65-5.71-13.85-12.74-13.85
			c-0.71,0-1.42,0-2.13,0c-7.04,0-12.75,6.2-12.75,13.85c0,16.34,0,41.3,0,41.3h27.62C215.82,1082.95,215.82,1057.99,215.82,1041.65
			L215.82,1041.65z M128.13,1045.27c0-6.93-4.85-12.55-10.82-12.55c-0.6,0-1.21,0-1.81,0c-5.98,0-9.1,4.93-9.1,11.86
			c0,14.81,0,37.43,0,37.43l21.73,0.69C128.13,1082.7,128.13,1060.08,128.13,1045.27L128.13,1045.27z M517.52,1082.7v-59.29
			c0-6.77-2.63-13.27-7.32-18.06c-4.69-4.79-11.05-7.48-17.68-7.48c-0.63,0-1.27,0-1.9,0c-6.63,0-12.99,2.69-17.68,7.48
			c-4.69,4.79-7.32,11.28-7.32,18.06c0,24.98,0,59.29,0,59.29h51.83H517.52L517.52,1082.7z M597.93,1082.23v-63.31
			c0-11.78-11.1-21.33-24.79-21.33c-1.38,0-2.76,0-4.14,0c-13.69,0-24.79,9.55-24.79,21.33c0,25.15,0,63.58,0,63.58h5.29
			L597.93,1082.23L597.93,1082.23z M600.93,1082.27l0,0.08L600.93,1082.27L600.93,1082.27z M600.93,1079.36l34.07,1.49v-41.68
			l-39.72-74.19c-0.23-0.44-0.35-0.92-0.35-1.42v-56.41c-165,2.81-330.47,17.41-496.39,43.16v129.83h4.85v-35.56
			c0-8.89,4.44-14.86,12.1-14.86h1.81c7.5,0,13.82,6.85,13.82,15.55v34.87h8.18v-35.4c0-5.17,1.96-10.13,5.42-13.79
			c3.52-3.72,8.3-5.79,13.28-5.79c0.48,0,0.85,0.07,1.14,0.17c4.56,0.29,8.89,2.32,12.14,5.76c3.46,3.66,5.42,8.61,5.42,13.79v35.27
			h8.49v-38.48c0-9.37,7.12-16.85,15.75-16.85h2.13c8.62,0,15.74,7.48,15.74,16.85v38.48h9.46v-38.03c0-5.52,2.24-10.81,6.25-14.71
			c3.97-3.88,9.36-6.06,14.98-6.06c0.46,0,0.92,0,1.39,0c5.62,0,11.01,2.18,14.98,6.06c4,3.9,6.25,9.2,6.25,14.71v38.03h9.4v-41.71
			c0-10.11,8.08-18.29,18.01-18.29h2.51c9.93,0,18.01,8.17,18.01,18.29v41.71h8.64v-44.91c0-6.31,2.52-12.37,7.02-16.83
			c4.49-4.46,10.57-6.96,16.92-6.96c0.53,0,1.06,0,1.59,0c6.35,0,12.43,2.51,16.92,6.96c4.49,4.46,7.02,10.52,7.02,16.83v44.91
			h17.01v-50.65c0-11.57,9.92-21.06,22.29-21.06h3.22c12.36,0,22.29,9.48,22.29,21.06v50.64l19.65-0.11v-56.6
			c0-7.56,2.94-14.81,8.18-20.16c5.26-5.37,12.39-8.38,19.82-8.38c0.63,0,1.27,0,1.9,0c7.43,0,14.57,3.01,19.82,8.38
			c5.23,5.35,8.18,12.6,8.18,20.16v56.27l20.7-0.12v-60.63c0-13.3,12.33-24.33,27.79-24.33h4.14c15.46,0,27.79,11.02,27.79,24.33
			V1079.36L600.93,1079.36z"/>
		<path class="st1" d="M284.52,1038.42c0-8.44,6.72-15.29,15.01-15.29c0.83,0,1.67,0,2.51,0c8.29,0,15.01,6.84,15.01,15.29v45.57
			h2.73c0,0,0-29.06,0-48.08c0-8.91-7.28-16.13-16.27-16.13c-0.91,0-1.81,0-2.72,0c-8.98,0-16.27,7.22-16.27,16.13V1038.42
			L284.52,1038.42z M398.17,1029.49c0-9.97,8.64-18.06,19.29-18.06c1.07,0,2.15,0,3.22,0c10.65,0,19.29,8.08,19.29,18.06v53.83h3.5
			c0,0,0-34.33,0-56.8c0-10.52-9.36-19.05-20.9-19.05c-1.16,0-2.33,0-3.49,0c-11.54,0-20.9,8.53-20.9,19.05V1029.49L398.17,1029.49z
			 M188.2,1041.65c0-7.65,5.71-13.85,12.75-13.85c0.71,0,1.42,0,2.13,0c7.04,0,12.74,6.2,12.74,13.85v41.3h2.31c0,0,0-26.34,0-43.58
			c0-8.07-6.18-14.62-13.81-14.62c-0.77,0-1.54,0-2.31,0c-7.63,0-13.81,6.54-13.81,14.62V1041.65L188.2,1041.65z M544.22,1018.93
			c0-11.78,11.1-21.33,24.79-21.33c1.38,0,2.76,0,4.14,0c13.69,0,24.79,9.55,24.79,21.33c0,25.15,0,63.58,0,63.58h4.5
			c0,0,0-40.55,0-67.1c0-12.43-12.03-22.51-26.86-22.51c-1.49,0-2.99,0-4.49,0c-14.84,0-26.86,10.08-26.86,22.51V1018.93
			L544.22,1018.93z M105.62,1045.09c0-6.93,3.93-12.55,9.91-12.55c0.6,0,1.21,0,1.81,0c5.98,0,10.82,5.62,10.82,12.55v37.43h1.96
			c0,0,0-23.87,0-39.49c0-7.32-5.25-13.25-11.73-13.25c-0.65,0-1.31,0-1.96,0c-6.48,0-10.67,5.93-10.67,13.25L105.62,1045.09
			L105.62,1045.09z"/>
		<path class="st1" d="M336.24,1022.3c0.49-0.61,1.02-1.2,1.59-1.76c3.93-3.9,9.25-6.09,14.81-6.09c0.53,0,1.06,0,1.59,0
			c5.55,0,10.88,2.19,14.81,6.09c3.93,3.9,6.13,9.19,6.13,14.7c0,20.34,0,48.27,0,48.27h2.68c0,0,0-29.57,0-51.09
			c0-5.84-2.23-11.43-6.2-15.56c-3.97-4.13-9.36-6.45-14.98-6.45c-0.54,0-1.07,0-1.61,0c-5.62,0-11,2.32-14.98,6.45
			C338.52,1018.46,337.23,1020.3,336.24,1022.3L336.24,1022.3z M232.99,1034.58c0.89-1.86,2.11-3.57,3.62-5.04
			c3.42-3.33,8.05-5.21,12.89-5.21c0.46,0,0.92,0,1.39,0c4.83,0,9.47,1.87,12.89,5.21c3.42,3.33,5.34,7.85,5.34,12.57v41.25h1.46
			c0,0,0-25.27,0-43.67c0-4.99-1.94-9.77-5.4-13.3c-3.46-3.53-8.15-5.51-13.04-5.51c-0.47,0-0.93,0-1.4,0
			c-4.89,0-9.58,1.98-13.04,5.51C235.45,1028.68,233.84,1031.51,232.99,1034.58L232.99,1034.58z M142.31,1046.31
			c0-4.4,1.65-8.61,4.6-11.72c2.94-3.11,6.94-4.86,11.1-4.86c0.4,0-0.4,0.13,0,0.13c4.16,0,8.16,1.75,11.1,4.86
			c2.94,3.11,4.6,7.33,4.6,11.72v36.78h1.57c0,0,0-22.02,0-39.18c0-4.65-1.67-9.12-4.65-12.41c-2.98-3.29-7.02-5.14-11.23-5.14
			c-0.4,0-0.8,0-1.21,0c-4.21,0-8.25,1.85-11.23,5.14c-2.98,3.29-4.65,7.76-4.65,12.41V1046.31L142.31,1046.31z M473.87,1004.45
			c4.58-4.22,10.54-6.58,16.75-6.58c0.63,0,1.27,0,1.9,0c6.63,0,12.99,2.69,17.68,7.48c4.69,4.79,7.32,11.28,7.32,18.06v59.24h4.32
			c0,0,0-36.32,0-62.75c0-7.17-2.66-14.04-7.41-19.11c-4.74-5.07-11.17-7.92-17.88-7.92c-0.64,0-1.28,0-1.92,0
			c-6.71,0-13.14,2.85-17.88,7.92C475.68,1001.92,474.72,1003.15,473.87,1004.45L473.87,1004.45z"/>
		<path class="st1" d="M597.59,931.26c0,0-333.97,17.91-502.1,43.79v6.38c169.34-22.6,502.1-38.6,502.1-38.6V931.26L597.59,931.26z"
			/>
		<path class="st1" d="M597.93,908.99c0,0-334.2,24.61-502.33,50.49v6.38c169.34-22.6,502.33-45.3,502.33-45.3V908.99L597.93,908.99
			z"/>
		<path class="st1" d="M598.1,951.54c-166.53,4-333.93,14.08-502.56,32.58v3.92c169.22-13.67,336.56-20.32,502.56-21.94V951.54
			L598.1,951.54z"/>
		<path class="st1" d="M132.71,1044.77c0-4.56-1.51-8.92-4.18-12.14c-2.68-3.22-6.31-5.03-10.1-5.03c-0.05,0-0.11,0-0.16,0
			c-3.79,0-7.42,1.81-10.09,5.03c-2.68,3.22-4.18,7.59-4.18,12.14c0,16.29,0,38.3,0,38.3h28.72
			C132.71,1083.08,132.71,1061.06,132.71,1044.77L132.71,1044.77z M131.81,1044.77v37.39h-26.93v-37.39c0-4.33,1.42-8.48,3.97-11.55
			c2.5-3.01,5.88-4.71,9.42-4.71c0.05,0,0.11,0,0.16,0c3.54,0,6.92,1.7,9.42,4.71C130.39,1036.29,131.81,1040.44,131.81,1044.77
			L131.81,1044.77z"/>
		<path class="st1" d="M221.75,1040.75c0-5.05-1.9-9.9-5.28-13.47c-3.38-3.57-7.97-5.58-12.75-5.58c-0.07,0-0.14,0-0.21,0
			c-4.78,0-9.37,2.01-12.75,5.58c-3.38,3.57-5.28,8.42-5.28,13.47c0,18.07,0,42.48,0,42.48h36.27
			C221.75,1083.23,221.75,1058.82,221.75,1040.75L221.75,1040.75z M220.63,1040.75v41.47h-34.02v-41.47c0-4.8,1.8-9.41,5.01-12.81
			c3.16-3.33,7.43-5.22,11.9-5.22c0.07,0,0.14,0,0.21,0c4.46,0,8.74,1.89,11.9,5.22C218.83,1031.34,220.63,1035.94,220.63,1040.75
			L220.63,1040.75z"/>
		<path class="st1" d="M323.04,1038.09c0-5.47-2.16-10.72-6-14.59c-3.84-3.87-9.05-6.04-14.49-6.04c-0.08,0-0.16,0-0.23,0
			c-5.43,0-10.65,2.17-14.49,6.04c-3.84,3.87-6,9.12-6,14.59c0,19.58,0,46.03,0,46.03h41.21
			C323.04,1084.12,323.04,1057.67,323.04,1038.09L323.04,1038.09z M321.76,1038.09v44.93h-38.65v-44.93c0-5.2,2.04-10.2,5.69-13.87
			c3.59-3.61,8.44-5.66,13.52-5.66c0.08,0,0.16,0,0.23,0c5.07,0,9.93,2.04,13.52,5.66C319.72,1027.89,321.76,1032.89,321.76,1038.09
			L321.76,1038.09z"/>
		<path class="st1" d="M446.85,1028.4c0-6.5-2.7-12.73-7.5-17.32c-4.8-4.59-11.31-7.17-18.1-7.17c-0.1,0-0.19,0-0.29,0
			c-6.79,0-13.3,2.58-18.1,7.17c-4.8,4.59-7.5,10.82-7.5,17.32c0,23.24,0,54.64,0,54.64h51.49
			C446.85,1083.03,446.85,1051.64,446.85,1028.4L446.85,1028.4z M445.25,1028.4v53.33h-48.29v-53.33c0-6.17,2.55-12.1,7.11-16.47
			c4.48-4.29,10.55-6.72,16.89-6.72c0.1,0,0.19,0,0.29,0c6.34,0,12.41,2.43,16.89,6.72C442.7,1016.3,445.25,1022.22,445.25,1028.4
			L445.25,1028.4z"/>
		<path class="st1" d="M605.86,1017.63c0-7.71-3.37-15.11-9.37-20.56c-6-5.45-14.13-8.52-22.61-8.52c-0.12,0-0.24,0-0.36,0
			c-8.48,0-16.62,3.06-22.61,8.52c-6,5.45-9.37,12.85-9.37,20.56c0,27.59,0,64.85,0,64.85h64.33
			C605.86,1082.48,605.86,1045.22,605.86,1017.63L605.86,1017.63z M603.86,1017.63v63.3h-60.33v-63.3c0-7.33,3.19-14.37,8.89-19.55
			c5.6-5.09,13.18-7.97,21.1-7.97c0.12,0,0.24,0,0.36,0c7.92,0,15.5,2.88,21.1,7.97C600.68,1003.26,603.86,1010.3,603.86,1017.63
			L603.86,1017.63z"/>
		<path class="st1" d="M526.32,1019.1c0-7.71-3.18-15.11-8.82-20.56c-5.65-5.45-13.31-8.52-21.3-8.52c-0.11,0-0.23,0-0.34,0
			c-7.99,0-15.65,3.06-21.3,8.52c-5.65,5.45-8.82,12.85-8.82,20.56c0,27.59,0,64.85,0,64.85h60.6
			C526.32,1083.96,526.32,1046.69,526.32,1019.1L526.32,1019.1z M524.44,1019.1v63.3h-56.83v-63.3c0-7.33,3-14.37,8.37-19.55
			c5.27-5.09,12.41-7.97,19.87-7.97c0.11,0,0.23,0,0.34,0c7.46,0,14.6,2.88,19.87,7.97C521.44,1004.74,524.44,1011.77,524.44,1019.1
			L524.44,1019.1z"/>
		<path class="st1" d="M381.48,1032.43c0-6.2-2.59-12.14-7.2-16.53c-4.61-4.38-10.86-6.85-17.37-6.85c-0.09,0-0.19,0-0.28,0
			c-6.51,0-12.76,2.46-17.37,6.85c-4.61,4.38-7.2,10.33-7.2,16.53c0,22.18,0,52.14,0,52.14h49.41
			C381.48,1084.56,381.48,1054.6,381.48,1032.43L381.48,1032.43z M379.95,1032.43v50.89H333.6v-50.89c0-5.89,2.45-11.55,6.83-15.72
			c4.3-4.09,10.12-6.41,16.2-6.41c0.09,0,0.19,0,0.28,0c6.08,0,11.9,2.32,16.21,6.41C377.5,1020.88,379.95,1026.53,379.95,1032.43
			L379.95,1032.43z"/>
		<path class="st1" d="M273.39,1039.16c0-5.29-2.25-10.36-6.25-14.09c-4-3.74-9.43-5.84-15.08-5.84c-0.08,0-0.16,0-0.24,0
			c-5.66,0-11.08,2.1-15.08,5.84c-4,3.74-6.25,8.81-6.25,14.09c0,18.91,0,44.46,0,44.46h42.9
			C273.39,1083.62,273.39,1058.07,273.39,1039.16L273.39,1039.16z M272.06,1039.16v43.39h-40.24v-43.39c0-5.03,2.12-9.85,5.93-13.4
			c3.73-3.49,8.79-5.47,14.07-5.47c0.08,0,0.16,0,0.24,0c5.28,0,10.34,1.98,14.07,5.47
			C269.94,1029.31,272.06,1034.14,272.06,1039.16L272.06,1039.16z"/>
		<path class="st1" d="M177.63,1043.57c0-4.97-1.93-9.74-5.37-13.26c-3.44-3.52-8.1-5.49-12.95-5.49c-0.07,0-0.14,0-0.21,0
			c-4.86,0-9.52,1.98-12.95,5.49c-3.44,3.52-5.37,8.29-5.37,13.26c0,17.79,0,40.07,0,40.07h36.85
			C177.63,1083.64,177.63,1061.36,177.63,1043.57L177.63,1043.57z M176.49,1043.57v39.07h-34.56v-39.07c0-4.73,1.83-9.26,5.09-12.61
			c3.21-3.28,7.55-5.14,12.09-5.14c0.07,0,0.14,0,0.21,0c4.54,0,8.88,1.86,12.09,5.14C174.67,1034.31,176.49,1038.85,176.49,1043.57
			L176.49,1043.57z"/>
		<path class="st0" d="M440.97,769.72l18.76,9.73v23.37l128.21-5.27v-23.11l47.35,5.02l-7.37,46.15l18.47,85.21l-186.66,1.77v-20.13
			l-18.76-48.72V769.72L440.97,769.72z M496.06,860.48c0-4.07-1.46-7.97-4.05-10.84c-2.59-2.88-6.11-4.49-9.78-4.49
			c-0.28,0-0.57,0-0.85,0c-3.67,0-7.18,1.62-9.78,4.49c-2.59,2.88-4.05,6.77-4.05,10.84c0,18.69,0,50.34,0,50.34l28.51-2.18
			C496.06,908.64,496.06,879.18,496.06,860.48L496.06,860.48z M573.5,856.01c0-3.91-1.46-7.66-4.05-10.42
			c-2.59-2.76-6.11-4.32-9.78-4.32c-0.28,0-0.57,0-0.85,0c-3.67,0-7.18,1.55-9.78,4.32c-2.59,2.76-4.05,6.51-4.05,10.42
			c0,17.97,0,48.38,0,48.38l28.51-2.09C573.5,902.3,573.5,873.97,573.5,856.01L573.5,856.01z"/>
		<path class="st1" d="M467.15,860.77v51.12c0,0,0-29.85,0-49.02c0-8.7,6.34-15.75,14.17-15.75c0,0,0,0,0.01,0
			c7.82,0,14.17,7.05,14.17,15.75c0,19.17,0,49.02,0,49.02h1.29c0,0,0-31.12,0-51.12c0-9.07-6.63-16.43-14.81-16.43c0,0,0,0-0.01,0
			C473.79,844.35,467.15,851.7,467.15,860.77L467.15,860.77z"/>
		<path class="st1" d="M544.81,856v51.12c0,0,0-29.85,0-49.02c0-8.7,6.34-15.75,14.17-15.75c0,0,0,0,0,0
			c7.82,0,14.17,7.05,14.17,15.75c0,19.17,0,49.02,0,49.02h1.29c0,0,0-31.12,0-51.12c0-9.07-6.63-16.43-14.81-16.43c0,0,0,0,0,0
			C551.44,839.57,544.81,846.93,544.81,856L544.81,856z"/>
		<polygon class="st1" points="440.97,814.68 631.15,807.42 632.41,818.2 444.24,826.02 440.97,814.68 		"/>
		<polygon class="st1" points="445.61,830.22 628.59,825.22 634.87,835.38 445.61,840.97 445.61,830.22 		"/>
		<polygon class="st1" points="344.87,628.46 354.78,640.1 354.78,734.07 373.73,775.32 362.27,776.46 344.62,734.07 344.87,628.46 
					"/>
		<polygon class="st1" points="442.29,769.02 438.93,827.47 445.45,872.21 445.45,910.32 464.09,910.32 456.88,872.21 
			448.88,828.56 448.88,778.36 442.29,769.02 		"/>
		<polygon class="st1" points="632.99,779.74 627.34,826.71 632.99,854.21 636.14,875.87 636.14,911.7 654.78,913.98 651.05,875.87 
			643.51,832.3 643.51,787.78 632.99,779.74 		"/>
		<polygon class="st1" points="596.5,904.58 596.5,964.63 635.72,1038.72 635.72,1084.62 649.76,1084.62 646.23,1028.73 
			612.95,961.27 616.51,911.16 596.5,904.58 		"/>
	</g>
	<g>
		<path class="st0" d="M1040.64,841.91c0-5.11-2.32-10.01-6.45-13.62c-4.13-3.61-9.73-5.64-15.57-5.64c-0.49,0-0.98,0-1.47,0
			c-5.84,0-11.44,2.03-15.57,5.64c-4.13,3.61-6.45,8.51-6.45,13.62c0,20.84,0,51.14,0,51.14h45.5
			C1040.64,893.05,1040.64,862.75,1040.64,841.91L1040.64,841.91z M1039.64,841.91v50.14h-43.5v-50.14c0-4.83,2.2-9.45,6.11-12.86
			c3.95-3.46,9.32-5.39,14.91-5.39c0.49,0,0.98,0,1.47,0c5.59,0,10.96,1.93,14.91,5.39
			C1037.43,832.46,1039.64,837.08,1039.64,841.91L1039.64,841.91z"/>
		<path class="st0" d="M1851.99,841.91c0-5.11-2.32-10.01-6.45-13.62c-4.13-3.61-9.73-5.64-15.57-5.64c-0.49,0-0.98,0-1.47,0
			c-5.84,0-11.44,2.03-15.57,5.64c-4.13,3.61-6.45,8.51-6.45,13.62c0,20.84,0,51.14,0,51.14h45.5
			C1851.99,893.05,1851.99,862.75,1851.99,841.91L1851.99,841.91z M1850.99,841.91v50.14h-43.5v-50.14c0-4.83,2.21-9.45,6.11-12.86
			c3.95-3.46,9.32-5.39,14.91-5.39c0.49,0,0.98,0,1.47,0c5.59,0,10.95,1.93,14.91,5.39
			C1848.79,832.46,1850.99,837.08,1850.99,841.91L1850.99,841.91z"/>
		<polygon class="st1" points="1023.33,1010.5 993.09,1010.5 993.09,1076.21 1023.33,1076.21 1023.33,1010.5 		"/>
		<polygon class="st1" points="1075.19,1010.5 1044.95,1010.5 1044.95,1076.21 1075.19,1076.21 1075.19,1010.5 		"/>
		<polygon class="st1" points="1837.47,1008.34 1807.23,1008.34 1807.23,1074.04 1837.47,1074.04 1837.47,1008.34 		"/>
		<polygon class="st0" points="1517.69,412.46 1476.4,412.46 1476.4,419.24 1517.69,419.24 1517.69,412.46 		"/>
		<polygon class="st0" points="1509.66,418.02 1484.43,418.02 1484.43,459.89 1509.66,459.89 1509.66,418.02 		"/>
		<path class="st0" d="M1500.23,370.58h-6.37c2.45,3.63-0.15,5.69-2.42,7.86c2.5,11.48,1.94,22.78,0,34.02h11.44
			c-2.5-11.34-3.22-22.68,0-34.02C1499.05,376.41,1498.34,373.76,1500.23,370.58L1500.23,370.58z"/>
		<g>
			<polygon class="st0" points="1851.99,809.27 975.08,809.27 975.08,1079.93 1851.99,1079.93 1851.99,809.27 			"/>
			<polygon class="st1" points="1851.99,822.65 975.08,822.65 975.08,899.54 1851.99,899.54 1851.99,822.65 			"/>
			<path class="st1" d="M1320.45,946.54c0-7.52-2.99-14.73-8.3-20.04c-5.32-5.32-12.53-8.3-20.04-8.3c-0.85,0-1.7,0-2.55,0
				c-7.52,0-14.73,2.99-20.04,8.3c-5.32,5.32-8.3,12.53-8.3,20.04c0,17.78,0,37.36,0,37.36h59.24
				C1320.45,983.9,1320.45,964.32,1320.45,946.54L1320.45,946.54z"/>
			<polygon class="st1" points="1361.83,993.22 1219.83,993.22 1219.83,999.13 1361.83,999.13 1361.83,993.22 			"/>
			<path class="st1" d="M1785.74,938.92c0-7.52-2.99-14.73-8.3-20.04c-5.32-5.32-12.52-8.3-20.04-8.3c-0.85,0-1.7,0-2.55,0
				c-7.52,0-14.73,2.99-20.04,8.3c-5.31,5.32-8.3,12.53-8.3,20.04c0,17.78,0,37.36,0,37.36h59.24
				C1785.74,976.28,1785.74,956.7,1785.74,938.92L1785.74,938.92z"/>
			<polygon class="st1" points="1827.12,985.61 1685.12,985.61 1685.12,991.51 1827.12,991.51 1827.12,985.61 			"/>
			<path class="st0" d="M1203.37,841.91c0-5.11-2.32-10.01-6.45-13.62c-4.13-3.61-9.73-5.64-15.57-5.64c-0.49,0-0.98,0-1.47,0
				c-5.84,0-11.44,2.03-15.57,5.64c-4.13,3.61-6.45,8.51-6.45,13.62c0,20.84,0,51.14,0,51.14h45.49
				C1203.37,893.05,1203.37,862.75,1203.37,841.91L1203.37,841.91z M1202.37,841.91v50.14h-43.49v-50.14c0-4.83,2.2-9.45,6.11-12.86
				c3.95-3.46,9.32-5.39,14.91-5.39c0.49,0,0.98,0,1.47,0c5.59,0,10.96,1.93,14.91,5.39
				C1200.16,832.46,1202.37,837.08,1202.37,841.91L1202.37,841.91z"/>
			<path class="st0" d="M1366.1,841.91c0-5.11-2.32-10.01-6.45-13.62c-4.13-3.61-9.73-5.64-15.57-5.64c-0.49,0-0.98,0-1.47,0
				c-5.84,0-11.44,2.03-15.57,5.64c-4.13,3.61-6.45,8.51-6.45,13.62c0,20.84,0,51.14,0,51.14h45.49
				C1366.1,893.05,1366.1,862.75,1366.1,841.91L1366.1,841.91z M1365.1,841.91v50.14h-43.5v-50.14c0-4.83,2.2-9.45,6.11-12.86
				c3.95-3.46,9.32-5.39,14.91-5.39c0.49,0,0.98,0,1.47,0c5.59,0,10.96,1.93,14.91,5.39C1362.89,832.46,1365.1,837.08,1365.1,841.91
				L1365.1,841.91z"/>
			<path class="st0" d="M1528.83,841.91c0-5.11-2.32-10.01-6.45-13.62c-4.13-3.61-9.73-5.64-15.57-5.64c-0.49,0-0.98,0-1.47,0
				c-5.84,0-11.44,2.03-15.57,5.64c-4.13,3.61-6.45,8.51-6.45,13.62c0,20.84,0,51.14,0,51.14h45.5
				C1528.83,893.05,1528.83,862.75,1528.83,841.91L1528.83,841.91z M1527.83,841.91v50.14h-43.5v-50.14c0-4.83,2.2-9.45,6.11-12.86
				c3.95-3.46,9.32-5.39,14.91-5.39c0.49,0,0.98,0,1.47,0c5.59,0,10.95,1.93,14.91,5.39
				C1525.62,832.46,1527.83,837.08,1527.83,841.91L1527.83,841.91z"/>
			<path class="st0" d="M1127.64,841.91c0-5.11-2.32-10.01-6.45-13.62c-4.13-3.61-9.73-5.64-15.57-5.64c-0.49,0-0.98,0-1.47,0
				c-5.84,0-11.44,2.03-15.57,5.64c-4.13,3.61-6.45,8.51-6.45,13.62c0,20.84,0,51.14,0,51.14h45.49
				C1127.64,893.05,1127.64,862.75,1127.64,841.91L1127.64,841.91z M1126.64,841.91v50.14h-43.49v-50.14c0-4.83,2.2-9.45,6.11-12.86
				c3.95-3.46,9.32-5.39,14.91-5.39c0.49,0,0.98,0,1.47,0c5.59,0,10.95,1.93,14.91,5.39
				C1124.44,832.46,1126.64,837.08,1126.64,841.91L1126.64,841.91z"/>
			<path class="st0" d="M1290.37,841.91c0-5.11-2.32-10.01-6.45-13.62c-4.13-3.61-9.73-5.64-15.57-5.64c-0.49,0-0.98,0-1.47,0
				c-5.84,0-11.44,2.03-15.57,5.64c-4.13,3.61-6.45,8.51-6.45,13.62c0,20.84,0,51.14,0,51.14h45.49
				C1290.37,893.05,1290.37,862.75,1290.37,841.91L1290.37,841.91z M1289.37,841.91v50.14h-43.5v-50.14c0-4.83,2.2-9.45,6.11-12.86
				c3.95-3.46,9.32-5.39,14.91-5.39c0.49,0,0.98,0,1.47,0c5.59,0,10.95,1.93,14.91,5.39
				C1287.17,832.46,1289.37,837.08,1289.37,841.91L1289.37,841.91z"/>
			<path class="st0" d="M1453.1,841.91c0-5.11-2.32-10.01-6.45-13.62c-4.13-3.61-9.73-5.64-15.57-5.64c-0.49,0-0.98,0-1.47,0
				c-5.84,0-11.44,2.03-15.57,5.64c-4.13,3.61-6.45,8.51-6.45,13.62c0,20.84,0,51.14,0,51.14h45.5
				C1453.1,893.05,1453.1,862.75,1453.1,841.91L1453.1,841.91z M1452.1,841.91v50.14h-43.5v-50.14c0-4.83,2.2-9.45,6.11-12.86
				c3.95-3.46,9.32-5.39,14.91-5.39c0.49,0,0.98,0,1.47,0c5.59,0,10.95,1.93,14.91,5.39C1449.9,832.46,1452.1,837.08,1452.1,841.91
				L1452.1,841.91z"/>
			<path class="st0" d="M1615.83,841.91c0-5.11-2.32-10.01-6.45-13.62c-4.13-3.61-9.73-5.64-15.57-5.64c-0.49,0-0.98,0-1.47,0
				c-5.84,0-11.44,2.03-15.57,5.64c-4.13,3.61-6.45,8.51-6.45,13.62c0,20.84,0,51.14,0,51.14h45.5
				C1615.83,893.05,1615.83,862.75,1615.83,841.91L1615.83,841.91z M1614.83,841.91v50.14h-43.5v-50.14c0-4.83,2.2-9.45,6.11-12.86
				c3.95-3.46,9.32-5.39,14.91-5.39c0.49,0,0.98,0,1.47,0c5.59,0,10.96,1.93,14.91,5.39
				C1612.63,832.46,1614.83,837.08,1614.83,841.91L1614.83,841.91z"/>
			<path class="st0" d="M1700.25,841.91c0-5.11-2.32-10.01-6.45-13.62c-4.13-3.61-9.73-5.64-15.57-5.64c-0.49,0-0.98,0-1.47,0
				c-5.84,0-11.44,2.03-15.57,5.64c-4.13,3.61-6.45,8.51-6.45,13.62c0,20.84,0,51.14,0,51.14h45.5
				C1700.25,893.05,1700.25,862.75,1700.25,841.91L1700.25,841.91z M1699.25,841.91v50.14h-43.5v-50.14c0-4.83,2.2-9.45,6.11-12.86
				c3.95-3.46,9.32-5.39,14.91-5.39c0.49,0,0.98,0,1.47,0c5.59,0,10.95,1.93,14.91,5.39
				C1697.05,832.46,1699.25,837.08,1699.25,841.91L1699.25,841.91z"/>
			<path class="st0" d="M1784.67,841.91c0-5.11-2.32-10.01-6.45-13.62c-4.13-3.61-9.73-5.64-15.57-5.64c-0.49,0-0.98,0-1.47,0
				c-5.84,0-11.44,2.03-15.57,5.64c-4.13,3.61-6.45,8.51-6.45,13.62c0,20.84,0,51.14,0,51.14h45.49
				C1784.67,893.05,1784.67,862.75,1784.67,841.91L1784.67,841.91z M1783.67,841.91v50.14h-43.5v-50.14c0-4.83,2.2-9.45,6.11-12.86
				c3.95-3.46,9.32-5.39,14.91-5.39c0.49,0,0.98,0,1.47,0c5.59,0,10.95,1.93,14.91,5.39
				C1781.47,832.46,1783.67,837.08,1783.67,841.91L1783.67,841.91z"/>
			<path class="st1" d="M1151.12,946.54c0-7.52-2.99-14.73-8.3-20.04c-5.31-5.32-12.52-8.3-20.04-8.3c-0.85,0-1.7,0-2.55,0
				c-7.52,0-14.73,2.99-20.04,8.3c-5.32,5.32-8.3,12.53-8.3,20.04c0,17.78,0,37.36,0,37.36h59.24
				C1151.12,983.9,1151.12,964.32,1151.12,946.54L1151.12,946.54z"/>
			<polygon class="st1" points="1192.5,993.22 1050.49,993.22 1050.49,999.13 1192.5,999.13 1192.5,993.22 			"/>
			<polygon class="st1" points="1684.04,1008.34 1653.79,1008.34 1653.79,1074.04 1684.04,1074.04 1684.04,1008.34 			"/>
			<polygon class="st1" points="1735.89,1008.34 1705.65,1008.34 1705.65,1074.04 1735.89,1074.04 1735.89,1008.34 			"/>
			<polygon class="st1" points="1125.98,1010.5 1095.74,1010.5 1095.74,1076.21 1125.98,1076.21 1125.98,1010.5 			"/>
			<polygon class="st1" points="1786.68,1008.34 1756.44,1008.34 1756.44,1074.04 1786.68,1074.04 1786.68,1008.34 			"/>
			<polygon class="st1" points="1176.77,1010.5 1146.53,1010.5 1146.53,1076.21 1176.77,1076.21 1176.77,1010.5 			"/>
			<polygon class="st1" points="1227.57,1010.5 1197.33,1010.5 1197.33,1076.21 1227.57,1076.21 1227.57,1010.5 			"/>
			<polygon class="st1" points="1278.36,1010.5 1248.12,1010.5 1248.12,1076.21 1278.36,1076.21 1278.36,1010.5 			"/>
			<polygon class="st1" points="1756.12,792.24 1235.39,792.24 1235.39,816.7 1756.12,816.7 1756.12,792.24 			"/>
			<polygon class="st1" points="1722.3,701.37 1270.43,701.37 1270.43,792.28 1722.3,792.28 1722.3,701.37 			"/>
			<path class="st0" d="M1318.62,735.19c0-8.7-7.05-15.75-15.75-15.75c-0.37,0-0.75,0-1.12,0c-8.7,0-15.75,7.05-15.75,15.75
				c0,17.38,0,42.94,0,42.94h32.62C1318.62,778.13,1318.62,752.57,1318.62,735.19L1318.62,735.19z"/>
			<path class="st0" d="M1377.71,735.19c0-8.7-7.05-15.75-15.75-15.75c-0.37,0-0.75,0-1.12,0c-8.7,0-15.75,7.05-15.75,15.75
				c0,17.38,0,42.94,0,42.94h32.62C1377.71,778.13,1377.71,752.57,1377.71,735.19L1377.71,735.19z"/>
			<path class="st0" d="M1436.58,735.19c0-8.7-7.05-15.75-15.75-15.75c-0.37,0-0.75,0-1.12,0c-8.7,0-15.75,7.05-15.75,15.75
				c0,17.38,0,42.94,0,42.94h32.62C1436.58,778.13,1436.58,752.57,1436.58,735.19L1436.58,735.19z"/>
			<path class="st0" d="M1491.67,733.66c0-8.7-7.05-15.75-15.75-15.75c-0.37,0-0.75,0-1.12,0c-8.7,0-15.75,7.05-15.75,15.75
				c0,17.39,0,42.94,0,42.94h32.62C1491.67,776.61,1491.67,751.05,1491.67,733.66L1491.67,733.66z"/>
			<path class="st0" d="M1547.6,735.19c0-8.7-7.05-15.75-15.75-15.75c-0.37,0-0.75,0-1.12,0c-8.7,0-15.75,7.05-15.75,15.75
				c0,17.38,0,42.94,0,42.94h32.62C1547.6,778.13,1547.6,752.57,1547.6,735.19L1547.6,735.19z"/>
			<path class="st0" d="M1601.89,735.19c0-8.7-7.05-15.75-15.75-15.75c-0.37,0-0.75,0-1.12,0c-8.7,0-15.75,7.05-15.75,15.75
				c0,17.38,0,42.94,0,42.94h32.62C1601.89,778.13,1601.89,752.57,1601.89,735.19L1601.89,735.19z"/>
			<path class="st0" d="M1655.43,733.66c0-8.7-7.05-15.75-15.75-15.75c-0.37,0-0.75,0-1.12,0c-8.7,0-15.75,7.05-15.75,15.75
				c0,17.39,0,42.94,0,42.94h32.61C1655.43,776.61,1655.43,751.05,1655.43,733.66L1655.43,733.66z"/>
			<path class="st0" d="M1708.2,733.66c0-8.7-7.05-15.75-15.75-15.75c-0.38,0-0.75,0-1.12,0c-8.7,0-15.75,7.05-15.75,15.75
				c0,17.39,0,42.94,0,42.94h32.62C1708.2,776.61,1708.2,751.05,1708.2,733.66L1708.2,733.66z"/>
			<polygon class="st0" points="1694.88,676.36 1299.21,676.36 1272.15,701.62 1721.94,701.62 1694.88,676.36 			"/>
			<path class="st0" d="M1299.21,676.36c0-110.49,88.57-200.05,197.83-200.05c109.26,0,197.83,89.57,197.83,200.05H1299.21
				L1299.21,676.36z"/>
			<path class="st1" d="M1337.96,680.82c0-5.57-6.41-10.08-14.31-10.08c-0.34,0-0.68,0-1.02,0c-7.9,0-14.31,4.51-14.31,10.08
				c0,11.13,0,16.26,0,16.26h29.63C1337.96,697.08,1337.96,691.95,1337.96,680.82L1337.96,680.82z"/>
			<path class="st1" d="M1391.64,680.82c0-5.57-6.41-10.08-14.31-10.08c-0.34,0-0.68,0-1.02,0c-7.9,0-14.3,4.51-14.3,10.08
				c0,11.13,0,16.26,0,16.26h29.63C1391.64,697.08,1391.64,691.95,1391.64,680.82L1391.64,680.82z"/>
			<path class="st1" d="M1445.12,680.82c0-5.57-6.4-10.08-14.31-10.08c-0.34,0-0.68,0-1.02,0c-7.9,0-14.31,4.51-14.31,10.08
				c0,11.13,0,16.26,0,16.26h29.63C1445.12,697.08,1445.12,691.95,1445.12,680.82L1445.12,680.82z"/>
			<path class="st1" d="M1495.17,679.84c0-5.57-6.4-10.08-14.3-10.08c-0.34,0-0.68,0-1.02,0c-7.9,0-14.3,4.51-14.3,10.08
				c0,11.13,0,16.26,0,16.26h29.63C1495.17,696.11,1495.17,690.98,1495.17,679.84L1495.17,679.84z"/>
			<path class="st1" d="M1545.99,680.82c0-5.57-6.4-10.08-14.31-10.08c-0.34,0-0.68,0-1.02,0c-7.9,0-14.31,4.51-14.31,10.08
				c0,11.13,0,16.26,0,16.26h29.63C1545.99,697.08,1545.99,691.95,1545.99,680.82L1545.99,680.82z"/>
			<path class="st1" d="M1595.31,680.82c0-5.57-6.41-10.08-14.31-10.08c-0.34,0-0.68,0-1.02,0c-7.9,0-14.31,4.51-14.31,10.08
				c0,11.13,0,16.26,0,16.26h29.63C1595.31,697.08,1595.31,691.95,1595.31,680.82L1595.31,680.82z"/>
			<path class="st1" d="M1643.95,679.84c0-5.57-6.4-10.08-14.31-10.08c-0.34,0-0.68,0-1.02,0c-7.9,0-14.3,4.51-14.3,10.08
				c0,11.13,0,16.26,0,16.26h29.63C1643.95,696.11,1643.95,690.98,1643.95,679.84L1643.95,679.84z"/>
			<path class="st1" d="M1691.89,679.84c0-5.57-6.4-10.08-14.31-10.08c-0.34,0-0.68,0-1.02,0c-7.9,0-14.31,4.51-14.31,10.08
				c0,11.13,0,16.26,0,16.26h29.63C1691.89,696.11,1691.89,690.98,1691.89,679.84L1691.89,679.84z"/>
			<path class="st1" d="M1497.12,474.6c-0.45-0.1-0.93-0.03-1.35,0.22c-0.31,0.19-0.63,0.38-0.94,0.57
				c-0.14-0.06-0.28-0.11-0.44-0.14l-0.07-0.01l-0.01,0l-0.05,0l-0.03,0c-0.09-0.01-0.17-0.01-0.26-0.01
				c-104.67,4.67-192.69,81.41-192.69,200.22c0,0.5,0.2,0.97,0.56,1.32c0.36,0.34,0.84,0.53,1.34,0.51l26.95-0.99
				c0.2,0.07,0.41,0.11,0.62,0.11h44.28c0.08,0.12,0.17,0.24,0.27,0.35c0.35,0.35,0.82,0.54,1.32,0.54l48.7-0.64
				c0.33,0.4,0.84,0.65,1.4,0.65h70.17c0.1,0,0.2-0.01,0.3-0.02c0.07,0.01,0.15,0.01,0.22,0.01h70.17c0.56,0,1.06-0.25,1.4-0.65
				l48.7,0.64c0.49,0.01,0.97-0.19,1.32-0.54c0.11-0.1,0.2-0.22,0.27-0.34h44.28c0.21,0,0.43-0.04,0.62-0.11l26.95,0.99
				c0.5,0.02,0.98-0.17,1.34-0.51c0.36-0.35,0.56-0.82,0.56-1.32c0-118.8-88.03-195.54-192.69-200.22c-0.09-0.01-0.18,0-0.26,0
				l-0.08,0.01h-0.01l-0.07,0.01h0c-0.15,0.03-0.3,0.07-0.44,0.13c-0.32-0.19-0.63-0.38-0.94-0.57
				C1498.08,474.54,1497.58,474.48,1497.12,474.6L1497.12,474.6z M1428.71,673.62h66.34l0.25-191.07h0
				c-37.92,51.1-57.77,93.6-64.3,148.18C1429.53,643.87,1428.75,658.07,1428.71,673.62L1428.71,673.62z M1563.27,630.72
				c-6.52-54.56-26.37-97.07-64.3-148.18l0.25,191.06h66.34C1565.53,658.06,1564.75,643.86,1563.27,630.72L1563.27,630.72z
				 M1427.37,630.25c7.02-62.48,29.56-101.24,62.5-147.46c-0.98,0.62-1.95,1.25-2.92,1.89c-74.77,56.87-102.67,103.16-108.36,184.05
				c-0.06,1.61-0.11,3.23-0.14,4.86l46.44-0.61C1424.96,657.82,1425.77,643.67,1427.37,630.25L1427.37,630.25z M1507.33,484.66
				c-0.97-0.64-1.94-1.26-2.92-1.89l0,0c32.93,46.22,55.48,84.98,62.49,147.46c1.6,13.43,2.41,27.57,2.48,42.73l46.44,0.61
				c-0.03-1.63-0.08-3.25-0.14-4.86C1610,587.81,1582.1,541.53,1507.33,484.66L1507.33,484.66z M1482.57,479.7
				c-97.04,9.45-176.73,82.66-177.63,193.84l23.53-0.86c2.98-50.4,22.07-93.23,57.48-128.91
				C1410.26,517.98,1442.35,496.55,1482.57,479.7L1482.57,479.7z M1511.7,479.69c40.23,16.85,72.32,38.28,96.62,64.07
				c35.41,35.68,54.5,78.51,57.48,128.91l23.53,0.86C1688.44,562.35,1608.75,489.14,1511.7,479.69L1511.7,479.69z M1478.54,485.9
				c-36.75,17.06-66.57,37.01-89.49,59.98c-32.66,34.49-51.14,76.92-56.29,126.85h41.9c0.08-1.41,0.18-2.82,0.27-4.2
				C1378.12,584.67,1418.47,527.18,1478.54,485.9L1478.54,485.9z M1515.74,485.89c60.07,41.28,100.43,98.77,103.61,182.63
				c0.1,1.38,0.19,2.79,0.27,4.2h41.89c-5.15-49.93-23.63-92.37-56.29-126.85C1582.3,522.89,1552.48,502.94,1515.74,485.89
				L1515.74,485.89z"/>
			<polygon class="st0" points="1544.62,463.63 1449.47,463.63 1449.47,480.98 1544.62,480.98 1544.62,463.63 			"/>
			<polygon class="st1" points="1544.51,474.85 1449.36,474.85 1449.17,484.76 1544.32,484.76 1544.51,474.85 			"/>
			<polygon class="st0" points="1530.79,453.68 1463.3,453.68 1463.3,468.64 1530.79,468.64 1530.79,453.68 			"/>
			<polygon class="st1" points="1490.61,830.1 1611.02,881.65 1370.21,881.65 1490.61,830.1 			"/>
			<polygon class="st0" points="1490.61,834.25 1591.64,877.5 1389.58,877.5 1490.61,834.25 			"/>
			<polygon class="st1" points="1632.34,1082.62 1357.01,1082.62 1357.01,1089.97 1632.34,1089.97 1632.34,1082.62 			"/>
			<polygon class="st1" points="1632.34,889.22 1357.01,889.22 1357.01,896.57 1632.34,896.57 1632.34,889.22 			"/>
			<polygon class="st1" points="1640.19,875.63 1349.7,875.63 1357.01,881.87 1632.34,881.87 1640.19,875.63 			"/>
			<polygon class="st0" points="1632.34,881.87 1357.01,881.87 1357.01,889.22 1632.34,889.22 1632.34,881.87 			"/>
			<polygon class="st1" points="1632.43,1103.14 1357.11,1103.14 1357.11,1110.49 1632.43,1110.49 1632.43,1103.14 			"/>
			<polygon class="st1" points="1393.01,906.18 1376.11,906.18 1367.8,1084.34 1401.32,1084.34 1393.01,906.18 			"/>
			<polygon class="st1" points="1393.01,900.99 1376.11,900.99 1376.11,906.18 1393.01,906.18 1393.01,900.99 			"/>
			<polygon class="st0" points="1396.56,896.57 1373.12,896.57 1376.11,900.99 1393.01,900.99 1396.56,896.57 			"/>
			<polygon class="st0" points="1393.01,906.18 1376.11,906.18 1376.11,907.86 1393.01,907.86 1393.01,906.18 			"/>
			<polygon class="st1" points="1606.11,906.18 1589.21,906.18 1580.9,1084.34 1614.43,1084.34 1606.11,906.18 			"/>
			<polygon class="st1" points="1606.11,900.99 1589.21,900.99 1589.21,906.18 1606.11,906.18 1606.11,900.99 			"/>
			<polygon class="st0" points="1609.66,896.57 1586.23,896.57 1589.21,900.99 1606.11,900.99 1609.66,896.57 			"/>
			<polygon class="st0" points="1606.11,906.18 1589.21,906.18 1589.21,907.86 1606.11,907.86 1606.11,906.18 			"/>
			<polygon class="st1" points="1524.29,940.96 1465.06,940.96 1465.06,996.68 1524.29,996.68 1524.29,940.96 			"/>
			<polygon class="st1" points="1565.68,1004.58 1423.67,1004.58 1423.67,1009.59 1565.68,1009.59 1565.68,1004.58 			"/>
			<path class="st1" d="M1524.39,1033.98c0-13.47-12.87-24.38-28.75-24.38c-0.58,0-1.15,0-1.73,0c-15.88,0-28.75,10.92-28.75,24.38
				c0,22.92,0,53.74,0,53.74h59.24C1524.39,1087.72,1524.39,1056.9,1524.39,1033.98L1524.39,1033.98z"/>
			<polygon class="st1" points="1192.5,808.11 1009.59,808.11 1009.59,816.7 1192.5,816.7 1192.5,808.11 			"/>
			<polygon class="st1" points="1180.62,776.19 1021.9,776.19 1021.9,808.12 1180.62,808.12 1180.62,776.19 			"/>
			<polygon class="st0" points="1170.99,767.41 1032.01,767.41 1022.51,776.28 1180.49,776.28 1170.99,767.41 			"/>
			<path class="st0" d="M1032.01,767.41c0-38.81,31.11-70.27,69.49-70.27c38.38,0,69.49,31.46,69.49,70.27H1032.01L1032.01,767.41z"
				/>
			<path class="st1" d="M1101.53,696.54c-0.16-0.04-0.33-0.01-0.47,0.08c-0.11,0.07-0.22,0.13-0.33,0.2
				c-0.05-0.02-0.1-0.04-0.15-0.05l-0.03,0l-0.02,0l-0.01,0c-0.03,0-0.06,0-0.09,0c-36.77,1.64-67.68,28.6-67.68,70.33
				c0,0.18,0.07,0.34,0.2,0.46c0.12,0.12,0.29,0.19,0.47,0.18l9.46-0.35c0.07,0.03,0.14,0.04,0.22,0.04h15.55
				c0.03,0.04,0.06,0.08,0.09,0.12c0.12,0.12,0.29,0.19,0.46,0.19l17.11-0.22c0.12,0.14,0.29,0.23,0.49,0.23h24.65
				c0.04,0,0.07,0,0.11-0.01c0.03,0,0.05,0.01,0.08,0.01h24.65c0.2,0,0.37-0.09,0.49-0.23l17.11,0.22c0.17,0,0.34-0.07,0.46-0.19
				c0.04-0.04,0.07-0.08,0.1-0.12h15.55c0.08,0,0.15-0.01,0.22-0.04l9.47,0.35c0.17,0.01,0.34-0.06,0.47-0.18
				c0.13-0.12,0.2-0.29,0.2-0.46c0-41.73-30.92-68.68-67.68-70.33c-0.03,0-0.06,0-0.09,0l-0.03,0h0l-0.03,0h0
				c-0.05,0.01-0.1,0.03-0.15,0.05c-0.11-0.07-0.22-0.13-0.33-0.2C1101.86,696.52,1101.69,696.49,1101.53,696.54L1101.53,696.54z
				 M1077.5,766.44h23.3l0.09-67.11l0,0c-13.32,17.95-20.29,32.88-22.58,52.05C1077.79,755.99,1077.51,760.98,1077.5,766.44
				L1077.5,766.44z M1124.76,751.37c-2.29-19.17-9.26-34.09-22.58-52.05l0.09,67.11h23.3
				C1125.56,760.98,1125.28,755.99,1124.76,751.37L1124.76,751.37z M1077.03,751.21c2.47-21.95,10.39-35.56,21.95-51.8
				c-0.34,0.22-0.68,0.44-1.03,0.66c-26.26,19.98-36.06,36.23-38.06,64.65c-0.02,0.57-0.04,1.14-0.05,1.71l16.31-0.21
				C1076.18,760.89,1076.46,755.92,1077.03,751.21L1077.03,751.21z M1105.11,700.07c-0.34-0.22-0.68-0.44-1.03-0.66l0,0
				c11.57,16.23,19.49,29.85,21.95,51.8c0.56,4.72,0.85,9.68,0.87,15.01l16.31,0.21c-0.01-0.57-0.03-1.14-0.05-1.71
				C1141.18,736.3,1131.38,720.04,1105.11,700.07L1105.11,700.07z M1096.42,698.33c-34.09,3.32-62.08,29.04-62.39,68.09l8.27-0.3
				c1.05-17.7,7.75-32.75,20.19-45.28C1071.02,711.77,1082.29,704.25,1096.42,698.33L1096.42,698.33z M1106.65,698.32
				c14.13,5.92,25.4,13.45,33.94,22.51c12.44,12.53,19.14,27.58,20.19,45.28l8.26,0.3C1168.73,727.36,1140.74,701.64,1106.65,698.32
				L1106.65,698.32z M1095,700.51c-12.91,5.99-23.38,13-31.43,21.07c-11.47,12.11-17.96,27.02-19.77,44.56h14.72
				c0.03-0.5,0.06-0.99,0.1-1.47C1059.73,735.2,1073.9,715.01,1095,700.51L1095,700.51z M1108.07,700.5
				c21.1,14.5,35.28,34.69,36.39,64.15c0.03,0.48,0.07,0.98,0.1,1.47h14.71c-1.81-17.54-8.3-32.44-19.77-44.56
				C1131.44,713.5,1120.97,706.49,1108.07,700.5L1108.07,700.5z"/>
			<polygon class="st0" points="1118.21,692.68 1084.79,692.68 1084.79,698.78 1118.21,698.78 1118.21,692.68 			"/>
			<polygon class="st1" points="1118.17,696.62 1084.75,696.62 1084.69,700.1 1118.1,700.1 1118.17,696.62 			"/>
			<polygon class="st0" points="1113.35,689.19 1089.65,689.19 1089.65,694.44 1113.35,694.44 1113.35,689.19 			"/>
			<polygon class="st0" points="1108.75,674.71 1094.25,674.71 1094.25,677.09 1108.75,677.09 1108.75,674.71 			"/>
			<polygon class="st0" points="1105.93,676.66 1097.07,676.66 1097.07,691.37 1105.93,691.37 1105.93,676.66 			"/>
			<path class="st0" d="M1102.62,660h-2.24c0.86,1.28-0.05,2-0.85,2.76c0.88,4.03,0.68,8,0,11.95h4.02c-0.88-3.98-1.13-7.97,0-11.95
				C1102.2,662.05,1101.96,661.12,1102.62,660L1102.62,660z"/>
		</g>
	</g>
	<path class="st2" d="M740.61,56c-83.05,0-150.48,65.66-150.48,146.54c0,80.88,67.43,146.54,150.48,146.54
		S891.1,283.42,891.1,202.54C891.1,121.66,823.67,56,740.61,56L740.61,56z"/>
	<path class="st3" d="M0.4,241.34c62.67-35.35,118.82-17.24,170.97,28.09c17.64,15.33,34.89,34.83,58.36,41.02
		c57.31,15.12,100.32-62.66,167.8-53.23c62.34,8.72,107.83,54.13,159.02,85.49c21.61,13.24,82.12,38.68,82.12,38.68H0.71L0.4,241.34
		L0.4,241.34z"/>
	<path class="st3" d="M1079.34,323c15.29-23.42,31.69-41.86,49.59-63.33c20.59-24.7,47.27-44.51,79.94-48.44
		c81.89-9.86,133.48,72.87,201.41,68.06c67.13-4.75,90.88-99.96,158.47-116.46c70.52-17.21,122.41,50.39,180.51,43.27
		c42.08-5.16,60.44-67.51,95.04-89.69c22.29-14.29,74.7-14.99,74.7-14.99V323H1079.34L1079.34,323z"/>
</g>
</svg>
